<?xml version="1.0" encoding="utf-8"?>
<!-- Generator: Adobe Illustrator 28.1.0, SVG Export Plug-In . SVG Version: 6.00 Build 0)  -->
<svg version="1.1" id="Layer_2_00000029755360126252386110000000080658311655738812_"
	 xmlns="http://www.w3.org/2000/svg" xmlns:xlink="http://www.w3.org/1999/xlink" x="0px" y="0px" viewBox="0 0 230.7 198.5"
	 style="enable-background:new 0 0 230.7 198.5;" xml:space="preserve">
<style type="text/css">
	.st0{fill:#72BF44;}
	.st1{fill:#244EA2;}
</style>
<g id="Layer_1-2">
	<g>
		<circle class="st0" cx="78.9" cy="48.1" r="26.5"/>
		<path class="st0" d="M50.9,183.6c-0.1-0.2-0.2-0.3-0.4-0.5c-6.2-8.4-10.3-22.1-11.6-35.8c-1.2-13.4-0.3-21.1-5.5-37.7
			C29,95.3,3.1,74.6,2.1,66.4c-0.3-2.5,2.4-7.5,7.8-9.5c6.4-2.3,14.8,2.8,21.2,8.1c6,4.9,14.3,15,23.4,20.6
			c9.1,5.6,20.1,9.9,31.8,8.3c11.8-1.6,29-20.2,35.2-27.4s28.3-38.3,37.5-52s13.6-13.7,15.9-12.7c11.8,5.3-23.3,60.9-27.8,68
			C137.2,85.5,79.8,165.6,50.9,183.6L50.9,183.6z"/>
		<path class="st1" d="M189.6,164.9c-13.7,0.2-21.2-1.4-31.3,2.9c-10.3,4.4-46.1,20.6-50.6,22.5c-4.4,1.8-20.4,8.1-30.9,6.7
			c-9.7-1.4-16.8-4.5-22.1-9.1C87.6,166.4,144,90,144.8,89.3c1.3-1.2,50-48,59.4-54.9c4.1-3,9.4-4.8,12.4-1.6c2,2,2.5,6.7-2.6,12.8
			s-36.9,37.2-42.1,42c-6.4,5.9-15.4,18.9-13.8,21.5c2.9,4.7,29.5-6.8,42.6-12.9c10.2-4.8,22.7-11.3,26.3-7.5
			c2.9,3.1,1.6,8.7-3,12.9c-4.4,4-34.3,22.2-37.5,23.8s-17.5,9.4-16.8,12.9c0.9,4.6,17,9,27.2,10.3c6.3,0.8,16.7,1.8,18.1,4.2
			C218.5,158.7,205.2,164.7,189.6,164.9L189.6,164.9z"/>
	</g>
</g>
</svg>
