<svg xmlns="http://www.w3.org/2000/svg" width="167.369" height="247.663" viewBox="0 0 167.369 247.663">
  <g id="svgg" transform="translate(-114.831 -61.2)">
    <path id="path0" d="M198.909,80c0,.99.078,1.395.173.9a5.661,5.661,0,0,0,0-1.8c-.1-.495-.173-.09-.173.9m17.956,7.817c-.67,1.471-.542,1.785.182.448.339-.625.541-1.211.449-1.3s-.375.293-.631.854M198.931,101.4c0,1.54.074,2.121.161,1.291a14.94,14.94,0,0,0,0-2.8c-.089-.71-.16-.031-.158,1.509m24.662,7.3L219,113.4l4.7-4.593c4.366-4.267,4.882-4.807,4.593-4.807-.058,0-2.173,2.115-4.7,4.7M158.8,142.542a33.333,33.333,0,0,0,3.1,2.264,198.929,198.929,0,0,1,23.7,19.214c6.038,5.648,5.483,5.489,9.3,2.666,3.422-2.53,3.42-2.54-1-5.388-11.187-7.208-35.1-19.987-35.1-18.756m69.476,19.836a9.715,9.715,0,0,0-5.776,4.286c-4.951,8.955,6.446,17.859,13.844,10.816,6.512-6.2.811-16.869-8.068-15.1m37.324,7.906c-6.849,2.516-25.459,14.056-31.3,19.409L232,191.8l2.2,4.33a34.3,34.3,0,0,1,2.2,4.877c0,1.418.887.8,2-1.4,5.011-9.925,14.83-20.36,26.641-28.309,1.806-1.215,1.985-1.538.564-1.016m-62.829,3.337c-4.077,4.42-4.029,4.211-1.668,7.235,14.81,18.975,21.718,39.324,19.219,56.611-.56,3.871-.354,4.29,1.329,2.7,21.044-19.827,16.826-44.036-11.72-67.273-3.829-3.117-3.6-3.141-7.16.723M116.233,276.045c-1.984,1.561-1.387,3.762,1.567,5.774,3.433,2.338,3.044,4.426-.63,3.372-1.487-.426-1.97-.233-1.97.786,0,1.3,4.3,1.727,5.936.583,2.4-1.685,1.829-4.349-1.332-6.158-3.344-1.913-3.343-3.443,0-3.3,1.513.066,1.793-.039,1.793-.671,0-1.486-3.637-1.749-5.367-.389m113.361-.1c-5.536,2.941-3.382,11.259,2.916,11.259,1.473,0,4.69-1.311,4.69-1.912,0-.854-1.575-1.253-2.676-.679-2.878,1.5-5.724-.194-5.724-3.409,0-3.242,2.847-4.909,5.774-3.383,1.089.568,1.231.556,1.954-.167,1.764-1.764-4.108-3.211-6.934-1.709M128.4,276.4a.7.7,0,0,0,.767.8c1.945,0,2.033.219,2.033,5.069v4.584l1.1-.126,1.1-.127.2-4.6.2-4.6,1.1-.127c.777-.089,1.1-.353,1.1-.9,0-.71-.31-.773-3.8-.773-3.533,0-3.8.056-3.8.8m13.6,3.381c0,6.092,1.248,7.788,5.387,7.322,3.368-.38,3.986-1.411,4.147-6.911l.135-4.592H149.2v3.911c0,4.446-.51,5.693-2.323,5.683-2.218-.013-2.877-1.5-2.877-6.491,0-3.043-.019-3.1-1-3.1h-1v4.181m16.4,1.419v5.6h2.813c5.073,0,6.854-1.438,6.893-5.566s-1.786-5.634-6.893-5.634H158.4v5.6m16.243-4.967a32.08,32.08,0,0,0-.243,4.967c0,5.864-.181,5.6,3.843,5.6,3.09,0,3.357-.064,3.357-.8,0-.657-.268-.8-1.5-.8-2.223-.009-3.3-.4-3.3-1.2,0-.777,1.072-1.186,3.129-1.2,1.78-.007,1.662-1.35-.132-1.515-2.78-.255-3-.4-3-2.051,0-1.717.5-2.023,3.3-2.034,1.232,0,1.5-.148,1.5-.8,0-1.085-6.545-1.242-6.957-.167M188.4,281.2v5.6h1c.978,0,1-.067,1-3,0-3.939.536-3.939,4.16,0,3.552,3.86,3.44,3.945,3.44-2.6v-5.6h-1c-.978,0-1,.067-1,3,0,1.939-.158,3-.446,3a19.819,19.819,0,0,1-3.529-3c-3.887-3.783-3.625-3.972-3.625,2.6m15.6-4.8a.7.7,0,0,0,.767.8c1.907,0,2.033.273,2.033,4.41,0,4.6.163,5.19,1.443,5.19.953,0,.957-.017.957-4.557,0-4.822.089-5.043,2.033-5.043a.7.7,0,0,0,.767-.8c0-.747-.267-.8-4-.8s-4,.053-4,.8m41.736,3.9c-3.222,6.832-3.131,6.5-1.769,6.5.651,0,1.247-.26,1.378-.6.338-.881,5.274-.853,5.769.033a1.328,1.328,0,0,0,1.377.5l1.023-.133-2.457-5.487a34.6,34.6,0,0,0-2.78-5.5,25.231,25.231,0,0,0-2.541,4.687m13.864.927v5.626l1.1-.126c.98-.113,1.113-.309,1.221-1.792.205-2.808,1.818-2.767,3.2.08.747,1.538,1.038,1.785,2.1,1.785.676,0,1.164-.135,1.084-.3s-.478-.951-.885-1.746c-.732-1.429-.73-1.468.154-3.294,1.847-3.815.163-5.86-4.825-5.86H259.6v5.627m15.6-.027v5.6h3.4c3.133,0,3.4-.063,3.4-.8,0-.691-.267-.8-1.951-.8a3.492,3.492,0,0,1-2.449-.6c-.82-.988.208-1.8,2.278-1.8,2.7,0,2.3-1.321-.481-1.6-3.63-.364-3.037-4,.652-4,1.684,0,1.951-.109,1.951-.8,0-.737-.267-.8-3.4-.8h-3.4v5.6m-110.1-2.537c2.38,2.6-.535,7.5-3.73,6.27-.765-.293-.83-7.17-.07-7.452a4.278,4.278,0,0,1,3.8,1.182m99.587-1.214a1.839,1.839,0,0,1-.135,3.527c-1.814.456-2.552-.056-2.552-1.77,0-1.84.691-2.292,2.687-1.757m-15.219,4.88c.306,1.22-.359,1.835-1.639,1.514-1.209-.3-1.257-.642-.36-2.532.731-1.539,1.449-1.174,2,1.018m-57.474,15.212c-5.536,2.941-3.382,11.259,2.916,11.259,3.309,0,5.338-1.88,5.021-4.652-.163-1.428-4.388-1.834-4.655-.448-.1.522.13.7.907.7,1.329,0,1.814,1.12.806,1.858a3.992,3.992,0,1,1-.015-6.841c1.089.568,1.231.556,1.954-.167,1.764-1.764-4.108-3.211-6.934-1.709M122.4,302.767V308.4h2.4v-2.6c0-3.028.191-3.134,1.777-.991,1.432,1.937,1.509,1.942,2.906.191,1.641-2.057,2.117-1.832,2.117,1,0,2.293.044,2.4,1,2.4h1v-5.6a50.018,50.018,0,0,0-.158-5.6,31.851,31.851,0,0,0-2.455,3c-2.815,3.675-2.815,3.675-5.6.1-3.045-3.9-2.983-3.954-2.983,2.467m20.056-.267c-1.359,2.915-2.468,5.435-2.463,5.6.015.612,2.407.313,2.407-.3,0-.476.578-.6,2.8-.6s2.8.124,2.8.6q0,.6,1.2.6c1.471,0,1.473-.085.071-3.029-.621-1.3-1.733-3.676-2.471-5.271-1.7-3.677-1.445-3.819-4.344,2.4m14.344.3v5.6h1c.978,0,1-.067,1-3,0-2.165.142-3,.51-3a17.1,17.1,0,0,1,3.49,3c3.795,3.82,3.6,3.963,3.6-2.627v-5.626l-1.1.126c-1.075.124-1.1.194-1.218,3.027-.144,3.559-.045,3.562-3.682-.1-3.794-3.82-3.6-3.96-3.6,2.6m18.536-.9c-3.222,6.832-3.131,6.5-1.769,6.5.651,0,1.247-.26,1.378-.6.338-.881,5.274-.853,5.769.033a1.328,1.328,0,0,0,1.377.5l1.023-.133-2.457-5.487a34.6,34.6,0,0,0-2.78-5.5,25.231,25.231,0,0,0-2.541,4.687m31.064.9v5.6H210c3.333,0,3.6-.059,3.6-.8,0-.679-.267-.8-1.767-.8-2.257,0-3.033-.307-3.033-1.2,0-.849.771-1.2,2.633-1.2,2.383,0,1.9-1.522-.533-1.678-3.694-.237-2.944-3.9.8-3.916,1.631-.005,1.9-.119,1.9-.806,0-.741-.267-.8-3.6-.8h-3.6v5.6m13.6-.033V308.4h2.4v-2.6c0-3.028.191-3.134,1.777-.991,1.432,1.937,1.509,1.942,2.906.191,1.641-2.057,2.117-1.832,2.117,1,0,2.293.044,2.4,1,2.4h1v-5.6a50.025,50.025,0,0,0-.158-5.6,31.846,31.846,0,0,0-2.455,3c-2.815,3.675-2.815,3.675-5.6.1-3.045-3.9-2.983-3.954-2.983,2.467m18.4.033v5.6H242c3.333,0,3.6-.059,3.6-.8,0-.679-.267-.8-1.767-.8-2.257,0-3.033-.307-3.033-1.2,0-.849.771-1.2,2.633-1.2,2.383,0,1.9-1.522-.533-1.678-3.694-.237-2.944-3.9.8-3.916,1.631-.005,1.9-.119,1.9-.806,0-.741-.267-.8-3.6-.8h-3.6v5.6m13.6.027v5.626l1.1-.126c1.075-.124,1.1-.194,1.218-3.027.144-3.573.133-3.574,3.708.1,3.734,3.837,3.574,3.954,3.574-2.6v-5.6h-1c-.971,0-1,.082-1,2.776,0,3.793-.383,3.82-3.95.273-3.883-3.859-3.65-4.024-3.65,2.578m15.8-5.227c-.388.627.079,1.076,1.392,1.338l1.208.242v9.22h2.4v-4.557c0-4.822.089-5.043,2.033-5.043a.7.7,0,0,0,.767-.8c0-.889-7.267-1.262-7.8-.4m-121.813,5.168c.692,1.67.4,2.632-.787,2.632-.64,0-1.039-.258-1.13-.732-.159-.826.667-3.068,1.13-3.068.167,0,.521.526.787,1.168m33.081,1.161c.306,1.22-.359,1.835-1.639,1.514-1.209-.3-1.257-.642-.36-2.532.731-1.539,1.449-1.174,2,1.018" fill="#f1f0f3" fill-rule="evenodd"/>
    <path id="path2" d="M169.45,62.451a3.626,3.626,0,0,0,.793,1.789c.3.241.428.555.287.7-.22.22.482,1.966,1.914,4.758A3.462,3.462,0,0,1,172.8,71c0,.333.18.6.4.6.494,0,.513-.59.047-1.5a22.793,22.793,0,0,1-1.449-3.6c-.138-.5-.4-.9-.588-.9s-.246-.34-.138-.755a.982.982,0,0,0-.237-1.023,1.283,1.283,0,0,1-.435-1,1.828,1.828,0,0,0-.6-1.225c-.519-.431-.566-.316-.35.851m58.7,1.849a24.344,24.344,0,0,0-1.548,3.5,1.058,1.058,0,0,1-.5.72,1.124,1.124,0,0,0-.5.818c0,.274-1.778,4.037-3.95,8.363s-3.839,7.976-3.7,8.112-.074.427-.467.647a.913.913,0,0,0-.454,1.22c.17.536.111.728-.17.554-.461-.285-1.79,2.424-1.455,2.967.108.173-.086.423-.43.555a.716.716,0,0,0-.386,1,.717.717,0,0,1-.4,1c-.443.17-.556.506-.369,1.1.168.528.118.758-.13.6-.51-.315-.935.752-.623,1.564.15.393.036.574-.313.5-.321-.068-.549.216-.549.684a1.769,1.769,0,0,1-.565,1.242,1,1,0,0,0-.325,1.067.63.63,0,0,1-.335.845.97.97,0,0,0-.575.839,3.512,3.512,0,0,1-.353,1.312c-1.033,2.031-1.323,2.868-1.16,3.356s.772-.633,2-3.661c.224-.55.571-1.322.773-1.716a1.355,1.355,0,0,0,.156-1.058c-.116-.188.078-.453.432-.589a.786.786,0,0,0,.442-1.016.786.786,0,0,1,.382-.993c.361-.139.492-.511.344-.979a.717.717,0,0,1,.4-1c.431-.165.555-.509.381-1.057s-.091-.778.273-.7c.3.062.53-.237.53-.69a1.468,1.468,0,0,1,.518-1.13.958.958,0,0,0,.288-1.052.713.713,0,0,1,.41-.969c.431-.165.555-.509.381-1.057s-.091-.778.273-.7c.339.07.494-.222.431-.813-.055-.508.061-.824.258-.7.429.266.938-.894.619-1.41-.124-.2-.053-.364.159-.364.329,0,2.787-4.757,5.789-11.2a25.82,25.82,0,0,1,1.582-2.9c.408-.6.642-1.26.52-1.458s.064-.472.416-.606a.653.653,0,0,0,.415-.83.7.7,0,0,1,.145-.812,41.1,41.1,0,0,0,3.129-5.9c.074-.165-.04-.3-.252-.3a10.79,10.79,0,0,0-1.933,3.1M198.4,88.8c0,9.46.141,17.2.314,17.2s.346-7.74.385-17.2c.045-10.8-.072-17.2-.314-17.2s-.385,6.447-.385,17.2m-21.6-7.424a1.059,1.059,0,0,0,.4.824,1.625,1.625,0,0,1,.4,1.2,1.625,1.625,0,0,0,.4,1.2,1.342,1.342,0,0,1,.4,1.029,3.879,3.879,0,0,0,.353,1.476c.195.382.576,1.235.847,1.895s.652,1.513.847,1.895a3.241,3.241,0,0,1,.353,1.119,9.2,9.2,0,0,0,.8,2.08,8.553,8.553,0,0,1,.8,2.187,3.363,3.363,0,0,0,.353,1.224c.195.382.531,1.145.747,1.695s.586,1.45.821,2a18.757,18.757,0,0,1,.683,1.906c.139.5.44.79.668.65.262-.162.318.047.152.569a2.293,2.293,0,0,0,.128,1.55,15.181,15.181,0,0,1,.689,1.525c.282.753.309.744.463-.146a1.8,1.8,0,0,0-.27-1.38,1.874,1.874,0,0,1-.434-1.159,3.745,3.745,0,0,0-.353-1.42c-.195-.382-.576-1.235-.847-1.895s-.652-1.513-.847-1.9A3.879,3.879,0,0,1,184,98.029,1.342,1.342,0,0,0,183.6,97a1.352,1.352,0,0,1-.4-1.036,1.125,1.125,0,0,0-.575-1.01.615.615,0,0,1-.355-.792,1.24,1.24,0,0,0-.153-1.067,10.656,10.656,0,0,1-.911-2.2,6.1,6.1,0,0,0-1.048-2.129.926.926,0,0,1-.307-.954.676.676,0,0,0-.224-.794,1.353,1.353,0,0,1-.427-1.046c0-.755-.144-1.145-1.138-3.066a4.179,4.179,0,0,1-.462-1.5c0-.333-.18-.6-.4-.6s-.4.259-.4.576M208,83.6c0,.44.18.8.4.8s.4-.36.4-.8-.18-.8-.4-.8-.4.36-.4.8m-18.394,4.676A5.126,5.126,0,0,0,190,90.4c.281.435.389.083.394-1.276A3.8,3.8,0,0,0,190,87c-.24-.148-.4.361-.394,1.276m17.419.824c-.589,3.369-.7,5.1-.3,4.7a4.878,4.878,0,0,0,.616-2c.12-.88.339-2.185.487-2.9.161-.782.108-1.3-.134-1.3-.221,0-.52.675-.664,1.5m-52.572-.432c.161.512,23.037,23.809,23.847,24.285,1.3.764-.337-.969-11.747-12.44-6.736-6.772-12.181-12.1-12.1-11.845M242.2,90.709c-1.1,1.017-4.155,3.838-6.793,6.27-8.322,7.671-16.794,16.165-16.456,16.5.178.177,3.065-2.468,6.414-5.878s8.143-8.09,10.653-10.4c7.838-7.214,8.582-7.936,8.377-8.141-.109-.109-1.1.633-2.195,1.65m-51.8,1.844a2.548,2.548,0,0,0,.4,1.647c.238.147.4-.321.4-1.153a2.548,2.548,0,0,0-.4-1.647c-.238-.147-.4.321-.4,1.153M172,93.76a45.113,45.113,0,0,0,3.571,5.44,7.255,7.255,0,0,1,.8,1.3c.312.605.717,1.1.9,1.1s.332.236.332.525a2.742,2.742,0,0,0,.7,1.32,18.372,18.372,0,0,1,2.262,3.535,11.359,11.359,0,0,0,1.138,1.575,2.942,2.942,0,0,1,.7,1.12.387.387,0,0,0,.426.325c.479,0-1-2.807-2.105-3.992A3.182,3.182,0,0,1,180,105a74.944,74.944,0,0,0-4.368-6.6,7.092,7.092,0,0,1-.8-1.3c-.312-.6-.717-1.1-.9-1.1s-.332-.242-.332-.538a2.349,2.349,0,0,0-.8-1.262c-.44-.4-.8-.6-.8-.44m50.819,2.812a8.544,8.544,0,0,0-1.219,2.2.389.389,0,0,1-.326.428c-.179,0-.71.72-1.18,1.6-1.515,2.838-.363,1.686,2.208-2.209,2.455-3.72,2.91-5.5.517-2.019m-16.952-1.1c-.415.415-.314,1.733.133,1.733.22,0,.4-.45.4-1,0-1.047-.092-1.174-.533-.733M191.2,96.8c0,.66.18,1.2.4,1.2s.4-.54.4-1.2-.18-1.2-.4-1.2-.4.54-.4,1.2m13.6,3.824c0,.847.162,1.323.4,1.176a2.055,2.055,0,0,0,.4-1.424c0-.647-.18-1.176-.4-1.176s-.4.641-.4,1.424m-12.657.576c.42,3.431.746,4.8,1.146,4.8.242,0,.295-.518.134-1.3-.148-.715-.367-2.02-.487-2.9a4.878,4.878,0,0,0-.616-2c-.264-.265-.323.206-.177,1.4m7.177.4c0,1.21.075,1.705.167,1.1a8.9,8.9,0,0,0,0-2.2c-.092-.605-.167-.11-.167,1.1m4.923,1.433c-.381.992-.285,2.567.157,2.567.22,0,.4-.72.4-1.6,0-1.705-.164-1.991-.557-.967m62.957.154c-.77.394-2.21,1.075-3.2,1.515s-2.97,1.345-4.4,2.013-3.185,1.454-3.9,1.747-1.3.669-1.3.836c0,.479.61.358,2.262-.451.846-.414,2.393-1.134,3.438-1.6,3.09-1.377,5.17-2.308,7.393-3.307a6.235,6.235,0,0,0,2.1-1.24c.011-.471-.871-.292-2.393.487m-38.8.92c0,.058-2.115,2.173-4.7,4.7L219,113.4l4.593-4.7c4.267-4.366,4.807-4.882,4.807-4.593M159.6,106.7a9.331,9.331,0,0,0,3.006,2.1,3.768,3.768,0,0,1,1.077.8c.469.437.944.706,1.054.6.214-.214-.374-.722-3.014-2.6-1.732-1.233-2.131-1.4-2.123-.89m56.374.442c-.929,1.152-1.611,2.458-1.282,2.453.362-.006,2.226-2.806,2.01-3.021-.082-.083-.41.173-.728.568m18.969,1.918c-2.16,1.649-4.259,3.606-3.348,3.123a39.541,39.541,0,0,0,5.2-3.666c1.578-1.453.26-1.065-1.848.543m-91.186.879c.36.583,15.041,7.791,15.313,7.519.365-.365-12.706-7.064-13.775-7.06a.458.458,0,0,1-.5-.4c0-.22-.281-.4-.624-.4s-.529.153-.414.339m108.108.34c-.622.326-1.033.691-.915.81.224.224,3.045-.988,3.045-1.308s-.989-.1-2.13.5M166.4,111.5c0,.179.533.64,1.185,1.025a11.739,11.739,0,0,1,1.7,1.2c1.04,1,5.282,3.842,5.466,3.657.242-.242-.526-.844-4.851-3.806-1.925-1.318-3.5-2.251-3.5-2.073m80.04,1.335a18.391,18.391,0,0,1-3.5,1.562c-.3,0-.54.18-.54.4,0,.65.526.484,3.8-1.2a20.055,20.055,0,0,1,3.655-1.6c.3,0,.545-.18.545-.4,0-.667-.863-.4-3.96,1.238M227.692,114.4a3.477,3.477,0,0,1-1.175.815c-.51.024-3.519,2.717-3.29,2.945.114.114.728-.239,1.364-.786a29.937,29.937,0,0,1,2.882-2.084,5.68,5.68,0,0,0,1.726-1.39c0-.53-.625-.322-1.507.5m11.384,1.887c-1.059.549-1.83,1.093-1.714,1.209.215.214,4.638-1.813,4.638-2.125,0-.376-1.1-.032-2.924.916M159.613,117.9c.01.248,2.8,1.663,9.886,5.01.5.233,1,.327,1.117.207.209-.208-10.1-5.517-10.718-5.517a.285.285,0,0,0-.285.3m75.987.1c0,.22.27.4.6.4s.6-.18.6-.4-.27-.4-.6-.4-.6.18-.6.4m-2.53,1.079c-.622.326-1.033.691-.915.81.224.224,3.045-.988,3.045-1.308s-.989-.1-2.13.5M147.2,122.8c0,.22.27.4.6.4s.6-.18.6-.4-.27-.4-.6-.4-.6.18-.6.4m4.4.753c0,.381.982.777,3.2,1.291,3.295.763,4.111.859,3.861.454a3.5,3.5,0,0,0-1.757-.665c-3.628-.618-4.123-.741-4.331-1.077-.284-.46-.973-.462-.973,0M159.8,126a1.709,1.709,0,0,0,1.247.4c.565,0,.893-.174.753-.4a1.709,1.709,0,0,0-1.247-.4c-.565,0-.893.174-.753.4m77.2,0c-.144.233.255.4.953.4a2.1,2.1,0,0,0,1.447-.4c.144-.233-.255-.4-.953-.4A2.1,2.1,0,0,0,237,126m-74.027.756c.209.338,1.26.581,4.78,1.106,1.09.163,1.47.1,1.276-.215a2.819,2.819,0,0,0-1.829-.447,2.923,2.923,0,0,1-1.8-.4,2.1,2.1,0,0,0-1.447-.4c-.66,0-1.1.16-.98.356m70.827.044c-.14.226.188.4.753.4a1.709,1.709,0,0,0,1.247-.4c.14-.226-.188-.4-.753-.4a1.709,1.709,0,0,0-1.247.4m-38.057,2.357c-9.878,2.548-9.884,17.336-.009,20.207,10.036,2.917,17.771-9.007,10.917-16.83a11.28,11.28,0,0,0-10.908-3.377M118.4,133.2c0,.262,8.467.4,24.6.4s24.6-.138,24.6-.4-8.467-.4-24.6-.4-24.6.138-24.6.4m110.8,0c0,.251,2.533.4,6.8.4s6.8-.149,6.8-.4-2.533-.4-6.8-.4-6.8.149-6.8.4m17.6,0c0,.26,5.6.4,16,.4s16-.14,16-.4-5.6-.4-16-.4-16,.14-16,.4m-89.4,8.807a.442.442,0,0,0,.582.2c.181-.113.429.053.549.367a2.586,2.586,0,0,0,1.142,1.025c.87.427.865.4-.077-.365-.55-.45-.82-.825-.6-.833.577-.022-.7-.79-1.324-.8-.288,0-.41.177-.272.4m70.4,5.546c-7.053,3.6-9.82,5.072-13.4,7.137-6.4,3.689-8.717,5.1-11.949,7.276-3.518,2.365-3.756,2.463-4.456,1.83s-.728-.625-.54.092c.152.581-.449,1.241-2.528,2.778-3.779,2.795-3.548,2.8-6.715-.212l-2.788-2.654,2.688,2.861c3.139,3.342,3.145,3.363,1.188,4.8a117.012,117.012,0,0,0-10.846,9.718q-31.23,32.021-2.714,58.809l1.48,1.388-.375-1.188a52.508,52.508,0,0,1-1.116-12.072c.133-1.274.348-3.4.477-4.716a34.116,34.116,0,0,1,.577-3.8c.189-.77.557-2.39.817-3.6a45.58,45.58,0,0,1,2.419-7.7,3.055,3.055,0,0,0,.381-1.1c0-.886,3.458-8.126,6.027-12.618,4-6.989,11.193-16.783,12.1-16.467.261.092.655-.153.875-.545.791-1.4,6.354-7.171,6.92-7.171.489,0,.495-.1.037-.652-1.04-1.253,16.5-16.847,26.243-23.328,6.195-4.122,4.9-3.816-4.8,1.133m-50.2,9.372a9.967,9.967,0,0,0,1.3,1.3l1.3,1.175-1.175-1.3c-1.1-1.212-1.425-1.484-1.425-1.175m4.2,3.875a11.133,11.133,0,0,0,1.762,1.6,6.95,6.95,0,0,0-1.362-1.6,11.133,11.133,0,0,0-1.762-1.6,6.95,6.95,0,0,0,1.362,1.6M165,162.657c-9.846,2.429-8.133,16.943,2,16.943,10.837,0,11.678-15.921.9-16.942a12.437,12.437,0,0,0-2.9,0m102.78,6.5a2.649,2.649,0,0,1-1.142.5,1.111,1.111,0,0,0-.865.841c-.057.386.064.6.269.472a.484.484,0,0,0,.1-.67c-.168-.272-.047-.353.318-.213a2.086,2.086,0,0,0,1.566-.524c.536-.412.786-.753.555-.758a1.341,1.341,0,0,0-.8.352M220.893,171.2c0,.77.082,1.085.183.7a3.3,3.3,0,0,0,0-1.4c-.1-.385-.183-.07-.183.7m-87.693.547a9.88,9.88,0,0,0,1.7,1.264c9.053,5.952,20.467,18.623,24.472,27.167l.739,1.578.759-1.931a53.652,53.652,0,0,1,3.13-6.606l.787-1.382-.894-.959c-1.575-1.691-11.258-8.749-15.341-11.182-9.057-5.4-15.352-8.656-15.352-7.949m78,1.978a9.967,9.967,0,0,0,1.3,1.3l1.3,1.175-1.175-1.3c-1.1-1.212-1.425-1.484-1.425-1.175m12.4,3.675a8.713,8.713,0,0,0,1.557,1.4c.11,0-.411-.63-1.157-1.4a8.713,8.713,0,0,0-1.557-1.4c-.11,0,.411.63,1.157,1.4m12.778.1L235,179l1.5-1.378c1.4-1.284,1.684-1.622,1.378-1.622a13.778,13.778,0,0,0-1.5,1.5m17.007,3-1.985,2.1,2.1-1.985c1.951-1.844,2.283-2.215,1.985-2.215a28,28,0,0,0-2.1,2.1m-34.6.4a22.626,22.626,0,0,0,1.9,1.9c.3,0-.017-.359-1.783-2.017L217,179l1.783,1.9m25.2,1.129-1.385,1.229,1.6-1.113,1.767-1.229c.091-.064,0-.116-.215-.116a5.943,5.943,0,0,0-1.767,1.229m4.2,3.671-1.985,2.1,2.1-1.985c1.951-1.844,2.283-2.215,1.985-2.215a28,28,0,0,0-2.1,2.1M232.6,193.6a3.445,3.445,0,0,0,.821,1.2c.11,0-.08-.54-.421-1.2a3.445,3.445,0,0,0-.821-1.2c-.11,0,.08.54.421,1.2m36.067,22.668c4.665,4.361,6.933,8.758,6.933,13.442,0,2.132-.149,2.72-1.456,5.75-3.152,7.3-15.519,15.388-29.644,19.373-.715.2-1.975.559-2.8.794-17.369,4.939-47,6.445-66.5,3.378-.77-.121-2.66-.411-4.2-.643s-3.52-.582-4.4-.775c-3.7-.813-7.3-1.7-8.8-2.169l-4.6-1.43a20.605,20.605,0,0,1-3.38-1.26,1.78,1.78,0,0,0-1-.328,45.791,45.791,0,0,1-6.036-2.723c-18.769-9.44-23.055-21.068-12.027-32.63L133,214.693l-2.41,1.607c-7.14,4.762-10.19,9.626-10.19,16.251,0,2.37.174,4.31.4,4.449a1.085,1.085,0,0,1,.4.846c0,4.876,12.948,14.282,26,18.889a87.5,87.5,0,0,0,12.6,3.665c.88.2,2.41.55,3.4.786s2.97.621,4.4.854,3.59.592,4.8.8c13.956,2.371,40.705,2.381,55.2.021,4.777-.777,7.387-1.245,9-1.614,4.525-1.033,5.733-1.317,7.2-1.688.88-.223,2.1-.505,2.705-.627a2.59,2.59,0,0,0,1.324-.575,1.647,1.647,0,0,1,1.176-.354,6.754,6.754,0,0,0,2.076-.45c.616-.247,1.569-.628,2.119-.846s1.313-.556,1.7-.751a3.292,3.292,0,0,1,1.171-.353,46.249,46.249,0,0,0,5.3-2.361c21.621-10.571,25.13-25.128,8.829-36.623-3.47-2.447-3.876-2.539-1.533-.348M220.493,225.2c0,.77.082,1.085.183.7a3.3,3.3,0,0,0,0-1.4c-.1-.385-.183-.07-.183.7m8.892,5.7c-.617.935-.865,1.489-.553,1.231.6-.5,2.132-2.931,1.844-2.931a8.862,8.862,0,0,0-1.291,1.7m-8.892,3.5c0,.77.082,1.085.183.7a3.3,3.3,0,0,0,0-1.4c-.1-.385-.183-.07-.183.7m-.974,6.511c-.114.6-.064,1.089.113,1.089.532,0,.685-.554.382-1.389-.255-.7-.31-.667-.5.3M121.19,275.463c.722.359.443,1.674-.4,1.862-.671.151-.654.172.1.128,1-.059,1.35-1.9.4-2.09-.28-.056-.325-.012-.1.1m6.96.322c-.41,1.07.161,1.818,1.337,1.755l1.113-.06-1.1-.167c-.763-.115-1.1-.4-1.1-.94,0-.71.31-.773,3.8-.773s3.8.063,3.8.773c0,.533-.343.831-1.1.958-1.045.176-1.04.182.1.127,1-.048,1.2-.226,1.2-1.058,0-1.258-7.581-1.836-8.05-.615m13.735-.337c-.6.6-.317,8.76.337,9.576.6.75.608.746.2-.1-.971-2.009-.53-9.326.562-9.326.958,0,.989.092,1.125,3.4l.141,3.4-.025-3.5c-.025-3.488-.946-4.847-2.34-3.453m7.815.028a3.3,3.3,0,0,0,1.4,0c.385-.1.07-.183-.7-.183s-1.085.082-.7.183m10,.015a17.273,17.273,0,0,0,3,0c.825-.086.15-.157-1.5-.157s-2.325.071-1.5.157m14.893.121a.6.6,0,0,0-.033.681c.132.132.24.03.24-.226,0-.319,1.076-.467,3.4-.467,3.1,0,3.4.068,3.4.778,0,.625-.336.809-1.7.933l-1.7.154,1.8-.032c1.645-.03,1.8-.119,1.8-1.033,0-1.111-6.564-1.829-7.207-.788m13.582.109a45.094,45.094,0,0,0-.074,5.7l.125,5.179.087-5.5c.1-6.461-.17-6.278,3.712-2.5a17.182,17.182,0,0,0,3.629,3c.3,0,.006-.341-.654-.756a28.735,28.735,0,0,1-3.587-3.2c-2.485-2.544-2.9-2.793-3.238-1.924m8.945-.231c.917.166.92.189.8,5.939-.066,3.175.02,5.772.191,5.772s.261-2.656.2-5.9l-.111-5.9-1-.039c-.911-.035-.918-.023-.08.129m8.78.005a36.33,36.33,0,0,0,4.2,0c1.155-.081.21-.147-2.1-.147s-3.255.066-2.1.147m29.3.3a4.427,4.427,0,0,0,1.4.572c.22,0-.05-.258-.6-.572a4.427,4.427,0,0,0-1.4-.572c-.22,0,.05.258.6.572m25.2-.352c2.316.3,5.912.329,5.739.052a11.141,11.141,0,0,0-3.463-.24c-1.8.033-2.826.118-2.276.188m14.581.257a47.718,47.718,0,0,0-.093,5.915L275,287h3.6c3.573,0,3.6-.007,3.6-1,0-.929-.142-1-2-1.031l-2-.031,1.9.152c1.564.125,1.9.289,1.9.931,0,.711-.3.779-3.4.779h-3.4V275.6h3.4c3.1,0,3.4.068,3.4.779,0,.648-.338.8-2,.935l-2,.156,2.1-.035c1.966-.033,2.1-.1,2.1-1.035,0-1.187-6.779-1.841-7.219-.7m-46.859.924L227,277.658l1.3-.9a7.367,7.367,0,0,0,1.3-1.029c0-.316-.442-.045-1.478.9M148.946,279.8c0,2.2.068,3.049.149,1.887a32.523,32.523,0,0,0,0-4c-.082-1.038-.148-.087-.147,2.113m2.8,0c0,2.2.068,3.049.149,1.887a32.523,32.523,0,0,0,0-4c-.082-1.038-.148-.087-.147,2.113m107.636,1.7c.019,5.663.611,7.068,2.277,5.4.222-.222-.108-.3-.835-.19l-1.2.176-.129-5.444L259.365,276l.017,5.5m-144.489-3.1c0,.77.082,1.085.183.7a3.3,3.3,0,0,0,0-1.4c-.1-.385-.183-.07-.183.7m116.807-.924a3.3,3.3,0,0,0,1.4,0c.385-.1.07-.183-.7-.183s-1.085.082-.7.183M130.951,282c0,2.53.065,3.565.145,2.3a44.665,44.665,0,0,0,0-4.6c-.08-1.265-.145-.23-.145,2.3m45.958-2.8c0,.99.078,1.395.173.9a5.662,5.662,0,0,0,0-1.8c-.1-.495-.173-.09-.173.9m32.376,2.9c-.085,4.68-.089,4.7-1.052,4.7a1.472,1.472,0,0,1-1.17-.41c-.111-.225-.158-.18-.1.1.142.719,2.193.9,2.456.211a32.8,32.8,0,0,0,.082-4.927l-.129-4.374-.085,4.7m68.067-2.7.048,1.6,2.067.208c1.136.114,1.981.069,1.876-.1a3.926,3.926,0,0,0-1.942-.308c-1.728,0-1.755-.021-1.925-1.5l-.171-1.5.047,1.6m-111.643,1.8c0,.99.078,1.395.173.9a5.662,5.662,0,0,0,0-1.8c-.1-.495-.173-.09-.173.9m-50.142-.655c.533.656,2.033,1.648,2.033,1.344a7.118,7.118,0,0,0-1.3-1.09c-.8-.589-1.084-.686-.733-.254M177.8,281c.914.318,3.329.406,3.148.113a3.537,3.537,0,0,0-1.872-.284c-.922.017-1.5.094-1.276.171m12.6,2.77c0,2.863-.038,2.98-1,3.149-.92.161-.912.171.1.127,1.089-.048,1.107-.091,1.223-2.949.12-2.967.477-3.476,1.683-2.4.477.425.481.4.031-.2-1.3-1.714-2.032-.892-2.032,2.273m58.651-1.473c.286,1.491-1.044,1.93-1.819.6-.384-.659-.408-.659-.42-.008-.013.736,1.631,1.376,2.365.922.528-.326.537-1.422.017-2.214-.279-.427-.321-.224-.143.7m-70.351.782a5.661,5.661,0,0,0,1.8,0c.495-.1.09-.173-.9-.173s-1.4.078-.9.173m100.205.005a7.141,7.141,0,0,0,2-.005c.492-.1-.005-.171-1.105-.168s-1.5.081-.895.173M148.18,284.369a3.666,3.666,0,0,1-1.58.54l-1.2.171,1.251.06a2.431,2.431,0,0,0,1.749-.54c.545-.657.388-.822-.22-.231M114.945,285.4c-.347.9.139,1.806.942,1.754.656-.043.653-.062-.027-.237-.535-.138-.688-.457-.555-1.154.205-1.074-.006-1.287-.36-.363m64.755-.319c1.56.134,1.9.3,1.9.941,0,.875-6.514,1.221-6.937.368-.111-.225-.156-.18-.1.1.232,1.142,7.237.667,7.237-.49,0-.928-.144-1-2-1.041l-2-.041,1.9.163m47.867.264c.533.656,2.033,1.648,2.033,1.344a7.121,7.121,0,0,0-1.3-1.09c-.8-.589-1.084-.686-.733-.254m4.133-.269a3.3,3.3,0,0,0,1.4,0c.385-.1.07-.183-.7-.183s-1.085.082-.7.183m10.97,1.085c-.528,1.377,2.274,1.509,2.938.139.394-.812.381-.832-.13-.2-.719.889-2.758.973-2.423.1.127-.33.141-.6.031-.6s-.3.252-.416.561m8.122.139c.33.68.75.885,1.722.84l1.286-.06-1.181-.174a3.136,3.136,0,0,1-1.722-.84c-.473-.582-.486-.552-.1.234m17.375-.156c.21.647.061.723-1.135.584-.757-.089-1.288-.018-1.18.156.255.412,2.443.41,2.7,0a1,1,0,0,0-.214-.9c-.328-.463-.362-.43-.169.163M235.2,286.6c-.55.314-.82.572-.6.572a4.427,4.427,0,0,0,1.4-.572c.55-.314.82-.572.6-.572a4.427,4.427,0,0,0-1.4.572m-103,.2-1.2.305,1.076.048a1.759,1.759,0,0,0,1.324-.353c.136-.22.192-.379.124-.353s-.664.185-1.324.353m29.2,0-3.2.253,3,.068a11.142,11.142,0,0,0,3.6-.321c.33-.213.42-.357.2-.321s-1.84.182-3.6.321m-28.637,10.683c-.513.654-.5.668.137.168.66-.517.7-.224.7,5.073v5.623l-1.005.175c-.92.161-.912.171.1.127l1.1-.049.112-5.568c.113-5.655-.133-6.843-1.149-5.549m23.812-.163a48.626,48.626,0,0,0-.087,5.9l.112,5.38H159l.029-3.2.029-3.2-.146,3.1c-.14,2.986-.182,3.1-1.129,3.1H156.8v-5.567c0-4.079.134-5.62.5-5.768.392-.158.389-.209-.013-.233a.78.78,0,0,0-.712.488m7.67-.192c-.112.18.328.249.976.154a2.635,2.635,0,0,0,1.179-.327c0-.3-1.957-.148-2.155.173m33.355.272a4.427,4.427,0,0,0,1.4.572c.22,0-.05-.258-.6-.572a4.427,4.427,0,0,0-1.4-.572c-.22,0,.05.258.6.572m10.5-.306a29.38,29.38,0,0,0,3.8,0c1.045-.082.19-.15-1.9-.15s-2.945.068-1.9.15m22.263.389c-.513.654-.5.668.137.168.66-.517.7-.224.7,5.073v5.623l-1,.175c-.92.161-.912.171.1.127l1.1-.049.112-5.568c.113-5.655-.133-6.843-1.149-5.549m9.737-.389a29.38,29.38,0,0,0,3.8,0c1.045-.082.19-.15-1.9-.15s-2.945.068-1.9.15m15.319,2.948c3.822,3.731,4.181,3.725,4.181-.066,0-2.694.029-2.776,1-2.776h1v5.567c0,3.4-.159,5.645-.41,5.77-.226.112-.18.157.1.1.385-.078.51-1.517.51-5.87V297h-2.4l-.118,2.9c-.144,3.559-.045,3.562-3.682-.1a28.61,28.61,0,0,0-3.241-3,25.4,25.4,0,0,0,3.06,3.242m12.45-2.956c-.107.173,1.588.257,3.768.187,3.739-.119,3.963-.081,3.963.674,0,.561-.328.855-1.1.984-1.045.176-1.04.182.1.127,1-.048,1.2-.226,1.2-1.058,0-1.013-7.343-1.859-7.931-.914m-77.347,1.143-1.122,1.029,1.3-.9a7.367,7.367,0,0,0,1.3-1.029c0-.316-.442-.045-1.478.9m3.578.847a3.3,3.3,0,0,0,1.4,0c.385-.1.07-.183-.7-.183s-1.085.082-.7.183m16.4.011a8.9,8.9,0,0,0,2.2,0c.6-.092.11-.167-1.1-.167s-1.705.075-1.1.167m32,0a8.9,8.9,0,0,0,2.2,0c.6-.092.11-.167-1.1-.167s-1.705.075-1.1.167m-79.815,6.506a25.4,25.4,0,0,0,3.4,3.189,26.3,26.3,0,0,0-3.285-3.37l-3.4-3.189,3.285,3.37m32.777-2.893c-.1.165.86.3,2.138.3s2.24-.135,2.138-.3a7.768,7.768,0,0,0-4.276,0m15.438-.019c2.641.226,2.789,1.586.2,1.84l-1.7.167,1.8-.044c2.914-.071,2.727-2.025-.2-2.085l-2-.041,1.9.163m32,0c2.641.226,2.789,1.586.2,1.84l-1.7.167,1.8-.044c2.914-.071,2.727-2.025-.2-2.085l-2-.041,1.9.163M178.651,303.9c.286,1.491-1.044,1.93-1.819.6-.384-.659-.408-.659-.42-.008-.013.736,1.631,1.376,2.365.922.528-.326.537-1.422.017-2.214-.279-.427-.321-.224-.143.7m-48.448.1c-.138.224.016.3.354.166.476-.182.629.209.747,1.9l.148,2.134.074-2.3c.071-2.217-.564-3.132-1.323-1.9m97.6,0c-.138.224.016.3.354.166.476-.182.629.209.747,1.9l.148,2.134.074-2.3c.071-2.217-.564-3.132-1.323-1.9m-83.541,1.3a1.616,1.616,0,0,0,1.876,0c.1-.165-.32-.3-.938-.3s-1.04.135-.938.3m45.705,1.645c.533.656,2.033,1.648,2.033,1.344a7.119,7.119,0,0,0-1.3-1.09c-.8-.589-1.084-.686-.733-.254m20.533-.258a8.9,8.9,0,0,0,2.2,0c.6-.092.11-.167-1.1-.167s-1.705.075-1.1.167m32,0a8.9,8.9,0,0,0,2.2,0c.6-.092.11-.167-1.1-.167s-1.705.075-1.1.167m-70.23,1.074c-.528,1.377,2.274,1.509,2.938.139.394-.812.381-.832-.13-.2-.719.889-2.758.973-2.423.1.127-.33.141-.6.031-.6s-.3.252-.416.561m8.122.139c.33.68.75.885,1.722.84l1.286-.06-1.181-.174a3.136,3.136,0,0,1-1.722-.84c-.473-.582-.486-.552-.1.234m17.208.3c-.55.314-.82.572-.6.572a4.427,4.427,0,0,0,1.4-.572c.55-.314.82-.572.6-.572a4.426,4.426,0,0,0-1.4.572m-58,.269c0,.182.54.331,1.2.331a2.473,2.473,0,0,0,1.2-.155,2.731,2.731,0,0,0-1.2-.33c-.66-.1-1.2-.028-1.2.154m9.8-.069-1.2.3,1.076.048a1.759,1.759,0,0,0,1.324-.353c.136-.22.192-.379.124-.353s-.664.185-1.324.353m103.6,0-1.2.3,1.076.048a1.759,1.759,0,0,0,1.324-.353c.136-.22.192-.379.124-.353s-.664.185-1.324.353m-130.1.276a3.3,3.3,0,0,0,1.4,0c.385-.1.07-.183-.7-.183s-1.085.082-.7.183m85.2.018a29.38,29.38,0,0,0,3.8,0c1.045-.082.19-.15-1.9-.15s-2.945.068-1.9.15m12.4-.018a3.3,3.3,0,0,0,1.4,0c.385-.1.07-.183-.7-.183s-1.085.082-.7.183m19.6.018a29.38,29.38,0,0,0,3.8,0c1.045-.082.19-.15-1.9-.15s-2.945.068-1.9.15m30.8-.018a3.3,3.3,0,0,0,1.4,0c.385-.1.07-.183-.7-.183s-1.085.082-.7.183" fill="#bb8bcb" fill-rule="evenodd"/>
  </g>
</svg>
