<svg xmlns="http://www.w3.org/2000/svg" width="167.827" height="249.634" viewBox="0 0 167.827 249.634">
  <g id="svgg" transform="translate(-114.573 -60.679)">
    <path id="path1" d="M196.2,128.649a10.932,10.932,0,0,0-3.017,19.937c8.549,5.377,19.192-3.538,15.621-13.084-1.8-4.819-7.807-8.083-12.6-6.853M238,142.28c-.941.34-16.969,8.38-19.935,10C211.218,156.021,196.911,164.917,196,166a15.994,15.994,0,0,1-1.6,1.2,18.954,18.954,0,0,0-1.6,1.181c-.11.12-1.37,1.113-2.8,2.205-30.3,23.146-36.346,47.92-16.493,67.567,2.8,2.773,4.228,3.707,3.737,2.447-4.8-12.323,2.751-38.5,16.277-56.4,2.477-3.278,4.239-5.56,4.479-5.8.11-.11,1.183-1.37,2.385-2.8,8.916-10.607,21.73-21.716,37.809-32.778,1.148-.79,1.073-1-.194-.542m-73.777,20.3c-6.153,2.27-8.167,9.584-3.929,14.275,7.748,8.575,20.854-2.275,13.713-11.352-2.115-2.689-6.7-4.06-9.784-2.923M132.2,171.364a103.12,103.12,0,0,1,10.4,8.146,71.876,71.876,0,0,1,16.455,20.69c1.021,1.89,1.383,1.989,1.785.488a48.336,48.336,0,0,1,2.337-5.158,43.9,43.9,0,0,0,1.932-4.094c-.06-.027-1.189-.952-2.509-2.056a119.725,119.725,0,0,0-11.2-8.244c-9.429-5.988-24.941-13.884-19.2-9.772m131,40.712c.11.114,1.46,1.243,3,2.509,14.984,12.319,11.184,25.5-10.259,35.578-9.953,4.679-20.181,7.2-38.541,9.5-5.3.664-29.893.656-34.8-.011-1.98-.269-4.95-.669-6.6-.89a118.4,118.4,0,0,1-22.4-4.962c-28.86-9.287-36.752-26.182-18.642-39.913,3.465-2.628.586-1.392-3.717,1.6-13.063,9.069-15.077,19.2-5.754,28.961,8.551,8.95,27.428,16.239,49.513,19.119,1.76.229,4.82.633,6.8.9,4.912.654,31.107.653,36.4,0a176.655,176.655,0,0,0,31.6-6.242,37.247,37.247,0,0,0,3.933-1.383A14.026,14.026,0,0,1,256,256a42.312,42.312,0,0,0,4.2-1.809c25.139-11.746,27.291-28.7,5.2-40.986a14.887,14.887,0,0,0-2.2-1.129M116.233,276.845c-1.984,1.561-1.387,3.762,1.567,5.774,3.433,2.338,3.044,4.426-.63,3.372-1.487-.426-1.97-.233-1.97.786,0,.833,1.054,1.21,3.411,1.218,4.573.015,5.437-4.636,1.249-6.724-3.7-1.846-3.018-4.252.916-3.222.754.2,1.064-1.251.363-1.7-1.045-.662-3.789-.387-4.906.491m12.667-.588c-1.086.455-.525,1.649.9,1.917l1.4.262v4.559c0,4.689.188,5.253,1.6,4.8.734-.233.8-.611.8-4.836V278.38l1.221-.244c.956-.191,1.194-.427,1.1-1.09-.12-.839-5.467-1.44-7.021-.789m13.6.01c-.667.267-.685,8.088-.022,9.544,1.109,2.434,5.391,3.009,7.616,1.023l1.306-1.167.133-4.578c.113-3.887.038-4.615-.5-4.821-1.542-.592-1.833.057-1.833,4.086,0,5.593-2.467,7.789-4.849,4.317-.027-.039-.162-1.947-.3-4.239-.242-4.011-.461-4.6-1.551-4.165m16.1.2a45.38,45.38,0,0,0-.109,5.957l.112,5.38,2.607-.056c5.894-.126,9.075-4.8,6.226-9.15-1.249-1.906-8.272-3.6-8.836-2.131m16.3,0c-.747.747-.688,10.477.068,11.1,1.112.923,6.415.382,6.565-.669.113-.8-.046-.9-1.4-.9-2.25-.009-3.328-.4-3.328-1.2,0-.777,1.072-1.186,3.129-1.195,1.78-.007,1.662-1.35-.132-1.515-2.78-.255-3-.4-3-2.051,0-1.721.495-2.023,3.328-2.034,1.354,0,1.513-.107,1.4-.9-.152-1.072-5.668-1.6-6.633-.635m21.372-.2a11.393,11.393,0,0,0-.267,3.2c0,3.678-.129,3.675-3.975-.067a29.168,29.168,0,0,0-3.354-3c-.649,0-.292,11.106.365,11.359,1.12.429,1.364-.141,1.364-3.183,0-3.913.541-3.91,4.16.024,3.8,4.129,3.84,4.1,3.84-2.32,0-5.675-.647-7.5-2.133-6.013m8.233-.01a.918.918,0,0,0,.326,1.743c2.142,0,2.374.508,2.374,5.19,0,4.384.19,5.019,1.364,4.569.529-.2.636-1,.636-4.759,0-4.787.088-5,2.061-5,.6,0,.763-.226.667-.9-.126-.889-5.783-1.531-7.428-.843m24.8.541c-5.205,3.174-2.966,11.241,3.1,11.181,1.8-.017,4.426-1.02,4.672-1.782.3-.93-1.364-1.39-2.671-.737a3.869,3.869,0,1,1,0-6.92c1.227.613,2.8.26,2.8-.628,0-1.569-5.813-2.389-7.9-1.114m30.8-.558c-.84.381-.7,11.2.151,11.524,1.024.393,1.749-.524,1.749-2.213,0-2.411,1.886-2.28,3.1.215.838,1.725,2.232,2.663,2.926,1.969.193-.193-.025-1.073-.495-2l-.841-1.655.9-1.869c1.7-3.51.029-5.783-4.446-6.047a12.254,12.254,0,0,0-3.048.075m15.275.28a48.635,48.635,0,0,0-.087,5.9l.112,5.38,3.038.116c2.315.088,3.156-.027,3.534-.483.789-.95.133-1.433-1.947-1.433a3.462,3.462,0,0,1-2.425-.6c-.82-.988.208-1.8,2.278-1.8,2.582,0,2.341-1.341-.275-1.528-1.943-.138-2.387-.526-2.4-2.092-.009-1.481.709-1.98,2.85-1.98,2.04,0,2.7-.487,1.929-1.418-.646-.778-6.314-.832-6.61-.062m-27.643.38c-1.267,2.006-4.826,10.564-4.522,10.869.437.438,2.39-.347,2.39-.96,0-.848,5.129-.49,5.6.391.445.831,1.777,1.084,2.19.416a1.308,1.308,0,0,0-.175-1.1c-.783-1.362-4.415-9.379-4.415-9.747,0-.537-.7-.452-1.068.131m17.074,1.5c1.772,0,1.4,2.978-.413,3.341-1.844.369-2.393-.033-2.393-1.75,0-1.511.5-2.085,1.533-1.759a5.18,5.18,0,0,0,1.273.168m-99.635,1.054a3.691,3.691,0,0,1-2.753,6.146H160.8v-7.2h1.771c1.437,0,1.927.2,2.6,1.054m84.033,2.958c.631,1.913.193,2.625-1.375,2.231-1.2-.3-1.256-.645-.383-2.483.832-1.753,1.109-1.713,1.758.252m-84.712,15.656A6.676,6.676,0,0,0,164,301.28c0,3.369.027,3.371-3.6-.28a24.843,24.843,0,0,0-3.29-3c-.44,0-.387,11.105.054,11.378,1.131.7,1.636-.295,1.636-3.221,0-3.76.225-3.758,4,.043,3.81,3.836,3.641,3.965,3.511-2.7-.115-5.875-.432-6.824-1.819-5.437m27.2.33c-5.118,3.121-2.988,11.195,2.955,11.2,3.559,0,5.5-1.585,5.272-4.316L199.8,303.8h-2.2c-1.772,0-2.22.135-2.329.7-.1.522.13.7.907.7a1.383,1.383,0,0,1,1.295.658c.727,1.9-4.123,2.321-5.536.484-2.611-3.4,1.069-8.092,4.859-6.2,1.227.613,2.8.26,2.8-.628,0-1.569-5.813-2.389-7.9-1.114m14.886-.294a47.423,47.423,0,0,0-.094,5.916l.112,5.38H210c3.221,0,3.407-.047,3.528-.9.113-.8-.046-.9-1.4-.9-2.25-.009-3.328-.4-3.328-1.2,0-.747,1.064-1.185,2.9-1.2,2.157-.01,1.43-1.54-.8-1.683L209,303.4l-.12-1.648c-.135-1.845.3-2.136,3.248-2.147,1.354,0,1.513-.107,1.4-.9-.156-1.1-6.543-1.647-6.946-.6m32,0a47.423,47.423,0,0,0-.094,5.916l.112,5.38H242c3.221,0,3.407-.047,3.528-.9.113-.8-.046-.9-1.4-.9-2.25-.009-3.328-.4-3.328-1.2,0-.747,1.064-1.185,2.9-1.2,2.157-.01,1.43-1.54-.8-1.683L241,303.4l-.12-1.648c-.135-1.845.3-2.136,3.248-2.147,1.354,0,1.513-.107,1.4-.9-.156-1.1-6.543-1.647-6.946-.6m21.518-.237c-.332.132-.5,1.122-.5,2.943,0,3.756-.389,3.78-3.95.239A27.461,27.461,0,0,0,252.291,298c-.459,0-.349,11.117.113,11.4,1.345.832,2-.222,2-3.229,0-3.649-.052-3.649,3.6.027,3.809,3.835,3.641,3.962,3.511-2.667-.108-5.509-.262-6.126-1.411-5.666m7.972.246c-.57.687-.109,1.306,1.215,1.63l1.088.266.112,4.7.113,4.7h2l.113-4.684.112-4.684,1.388-.261c1.485-.278,1.951-1.469.754-1.928-1.22-.468-6.452-.263-6.9.27M122.4,303.543c0,5.764.151,6.317,1.6,5.856.686-.218.8-.608.8-2.826,0-3,.193-3.1,1.777-.964,1.432,1.937,1.509,1.942,2.906.191,1.634-2.049,2.117-1.83,2.117.957,0,1.832.149,2.414.667,2.613,1.191.457,1.358-.348,1.245-6L133.4,297.8l-2.348,3.1c-2.869,3.786-2.871,3.786-5.669.2-3.044-3.9-2.983-3.952-2.983,2.443m20-.132c-1.8,3.847-2.408,5.536-2.1,5.84.559.559,2.109.061,2.109-.678,0-.443.636-.573,2.8-.573s2.8.13,2.8.573c0,.731,1.548,1.239,2.1.689.289-.289.111-1.066-.583-2.539-.55-1.168-1.685-3.608-2.522-5.423-1.91-4.141-1.608-4.28-4.6,2.111m34.937-4.911c-1.267,2.006-4.826,10.564-4.522,10.869.437.438,2.39-.347,2.39-.96,0-.848,5.129-.49,5.6.391.445.831,1.777,1.084,2.19.416a1.308,1.308,0,0,0-.175-1.1c-.783-1.362-4.415-9.379-4.415-9.747,0-.537-.7-.452-1.068.131M220,303.543c0,5.764.151,6.317,1.6,5.856.686-.218.8-.608.8-2.826,0-3,.193-3.1,1.777-.964,1.432,1.937,1.509,1.942,2.906.191,1.634-2.049,2.117-1.83,2.117.957,0,1.832.149,2.414.667,2.613,1.191.457,1.358-.348,1.245-6L231,297.8l-2.348,3.1c-2.869,3.786-2.871,3.786-5.669.2-3.044-3.9-2.983-3.952-2.983,2.443m-74.013.025c.692,1.67.4,2.632-.787,2.632-.64,0-1.039-.258-1.13-.732-.159-.826.667-3.068,1.13-3.068.167,0,.521.526.787,1.168m32.817.444c.631,1.913.193,2.625-1.375,2.231-1.2-.3-1.256-.645-.383-2.483.832-1.753,1.109-1.713,1.758.252" fill="#43345a" fill-rule="evenodd"/>
    <path id="path2" d="M161.646,144.333c.525.4,2.124,1.516,3.554,2.474,2.6,1.738,11.182,8.5,14.187,11.18,3.158,2.811,6.451,5.864,9.082,8.421l2.683,2.608,2.324-1.732c1.278-.953,2.614-1.968,2.968-2.256a4.815,4.815,0,0,1,1.2-.711c.35-.119.038-.456-.844-.912-.77-.4-2.968-1.777-4.885-3.065a37.641,37.641,0,0,0-3.738-2.34,5.1,5.1,0,0,1-1.315-.753c-.584-.414-1.737-1.134-2.562-1.6s-2.175-1.234-3-1.707c-4.1-2.353-19.8-10.34-20.323-10.34-.157,0,.144.33.669.733m66.577,18.347c-2.865.458-5.929,3.6-6.436,6.594-1.466,8.678,8.722,14.006,14.639,7.656,5.866-6.295.485-15.642-8.2-14.25M204.2,172.134c-3.2,3.389-4.626,5.066-4.316,5.072.174,0,.068.164-.236.356-.43.272.02,1.091,2.026,3.694a108.1,108.1,0,0,1,15.14,26.144c.183.44.55,1.52.815,2.4s.623,1.96.8,2.4a15.2,15.2,0,0,1,.563,2c.136.66.423,1.92.638,2.8a70.529,70.529,0,0,1,1.03,21.2l-.314,2.8,2.789-2.89a45.387,45.387,0,0,0,8.1-10.91c.688-1.43,1.412-2.913,1.609-3.295a3.83,3.83,0,0,0,.358-1.476,1.332,1.332,0,0,1,.358-1c.891-.55,1.509-9.948.857-13.013-2.551-11.976-12.583-26.231-25.157-35.747-3.318-2.51-3.2-2.5-5.058-.532m55.782,1.213c-2.3,1.181-5.8,3.094-7.782,4.252s-4.23,2.462-5,2.9a112.449,112.449,0,0,0-13.2,9.777c-1.7,1.607-1.767,1.754-1.222,2.614a63.619,63.619,0,0,1,3.6,7.231c.476,1.366.964,1.149,1.882-.837a35.519,35.519,0,0,1,2.211-3.761A18.157,18.157,0,0,0,242,193c0-1.968,13.32-15.205,19.9-19.777,2.218-1.541,2.784-2.021,2.382-2.021-.065,0-2,.966-4.3,2.147" fill="#ab8cb3" fill-rule="evenodd"/>
    <path id="path3" d="M168.8,61.376a1.059,1.059,0,0,0,.4.824,1.342,1.342,0,0,1,.4,1.029,3.846,3.846,0,0,0,.356,1.476c.2.382.756,1.6,1.244,2.695s1.048,2.313,1.244,2.695a3.462,3.462,0,0,1,.356,1.3c0,.333.18.605.4.605s.4.272.4.605a4.179,4.179,0,0,0,.462,1.5c.994,1.921,1.138,2.311,1.138,3.066a1.342,1.342,0,0,0,.4,1.029,1.342,1.342,0,0,1,.4,1.029,4.2,4.2,0,0,0,.4,1.576l.8,1.59a3.877,3.877,0,0,1,.4,1.405,3.877,3.877,0,0,0,.4,1.4l.8,1.59a3.877,3.877,0,0,1,.4,1.4,3.5,3.5,0,0,0,.353,1.305c.4.787,1.21,2.7,1.647,3.9.319.872.86,2.236,1.506,3.8.227.55.63,1.63.894,2.4a42.323,42.323,0,0,0,1.579,4,25.07,25.07,0,0,1,.841,2.5c.6,2.045,1.8,2.765,1.336.8a4.281,4.281,0,0,0-.608-1.48,1.9,1.9,0,0,1-.348-1.1,3.745,3.745,0,0,0-.353-1.42c-.195-.382-.531-1.145-.747-1.695-.689-1.754-1.383-3.379-1.747-4.095A3.5,3.5,0,0,1,183.2,95.8a3.5,3.5,0,0,0-.353-1.305c-.2-.382-.576-1.235-.847-1.9s-.652-1.513-.847-1.895a3.236,3.236,0,0,1-.353-1.1,10.215,10.215,0,0,0-.753-2.1c-.414-.933-.972-2.326-1.24-3.1a35.883,35.883,0,0,0-1.654-4.1A3.491,3.491,0,0,1,176.8,79c0-.333-.18-.6-.4-.6s-.4-.362-.4-.805a4.487,4.487,0,0,0-.462-1.7c-.972-1.879-1.138-2.3-1.138-2.895a3.5,3.5,0,0,0-.353-1.305c-.349-.686-.975-2.147-1.754-4.1l-.72-1.8c-.176-.44-.55-1.52-.83-2.4-.747-2.344-1.943-3.59-1.943-2.024M227.729,64.9c-4.071,8.182-11.652,23.734-12.236,25.1-1.371,3.21-1.842,4.295-2.646,6.1A17.606,17.606,0,0,0,212,98.2a17.724,17.724,0,0,1-.84,2.1c-.462,1.043-.978,2.256-1.146,2.7s-.5,1.25-.724,1.8c-.751,1.8-.86,2.371-.5,2.6.317.2,1.026-1.08,2-3.6.17-.44.714-1.7,1.21-2.8s1.041-2.36,1.211-2.8.687-1.653,1.149-2.7a16.645,16.645,0,0,0,.84-2.125c0-.53,8.078-17.363,11.124-23.179a26.48,26.48,0,0,0,2.476-5.675.477.477,0,0,1,.4-.525c.22,0,.4-.36.4-.8s.18-.8.4-.8.4-.36.4-.8c0-1.56-.655-.75-2.671,3.3M198.4,88.6c0,11.6.139,17.8.4,17.8.489,0,.471.6.471-16,0-18.875-.017-19.6-.471-19.6-.261,0-.4,6.2-.4,17.8m-9.6-5.4c0,.44.18.8.4.8s.4-.36.4-.8-.18-.8-.4-.8-.4.36-.4.8m19.2.4c0,.66.18,1.2.4,1.2s.4-.54.4-1.2-.18-1.2-.4-1.2-.4.54-.4,1.2m-18.476,3.009c-.322.322.11,3.922.525,4.371a3.875,3.875,0,0,1,.351,1.876,2.782,2.782,0,0,0,.4,1.744,3.3,3.3,0,0,1,.4,1.944,4.379,4.379,0,0,0,.366,2.076,7.976,7.976,0,0,1,.567,2.78c.27,3.238.677,5,1.153,5,.233,0,.3-.694.167-1.7-.6-4.516-.761-5.327-1.094-5.68A4.268,4.268,0,0,1,192,97a4.217,4.217,0,0,0-.363-2.02,6.538,6.538,0,0,1-.585-2.38c-.574-5.194-.93-6.588-1.528-5.991M207.017,88.5c-.151.715-.368,2.2-.482,3.3a6.467,6.467,0,0,1-.572,2.38,5.1,5.1,0,0,0-.363,2.276,3.874,3.874,0,0,1-.4,2.144,2.923,2.923,0,0,0-.4,1.8,2.923,2.923,0,0,1-.4,1.8c-.5.307-.534,3.8-.04,3.8.2,0,.462-.765.587-1.7s.334-2.51.463-3.5A12.582,12.582,0,0,1,206,98.2a10.571,10.571,0,0,0,.555-2.2c.111-.77.406-2.3.654-3.4.716-3.176.914-5.4.479-5.4-.218,0-.519.585-.669,1.3m-52.966.174c1.93,2.37,24.744,25.065,24.969,24.839C179.383,113.151,154.77,88,154.051,88c-.465,0-.465.1,0,.672M239.8,92.648c-2.2,2.107-5.342,5.027-6.982,6.491C229.505,102.1,218.4,113.077,218.4,113.4c0,1.038,2.3-.87,8.314-6.9,3.9-3.907,8.79-8.632,10.873-10.5,4.3-3.859,7.213-6.676,7.213-6.985,0-.8-1.532.317-5,3.637m-71-2.71c0,.452,1.554,1.841,1.793,1.6.265-.265-.958-1.94-1.416-1.94a.36.36,0,0,0-.377.338m3.2,4.187a2.911,2.911,0,0,0,.8,1.383,3.266,3.266,0,0,1,.8,1.175,6.683,6.683,0,0,0,1.2,1.717,5.423,5.423,0,0,1,1.2,1.9c0,.275.151.5.333.5s.588.495.9,1.1a10.7,10.7,0,0,0,1.268,1.875,2.651,2.651,0,0,1,.7,1.3.477.477,0,0,0,.4.525.4.4,0,0,1,.4.4c0,.554,2.528,4.379,2.9,4.388.544.013.3-.976-.5-1.993a4.323,4.323,0,0,1-.791-1.317,3.384,3.384,0,0,0-.809-1.175,2.911,2.911,0,0,1-.8-1.383.477.477,0,0,0-.4-.525.477.477,0,0,1-.4-.525,2.911,2.911,0,0,0-.8-1.383,3.267,3.267,0,0,1-.8-1.175,6.682,6.682,0,0,0-1.2-1.717,5.423,5.423,0,0,1-1.2-1.9c0-.275-.151-.5-.333-.5s-.588-.5-.9-1.1c-.959-1.857-1.968-2.665-1.968-1.575m51.313,1.383A19.624,19.624,0,0,0,221.55,98.3c-.482.935-1.027,1.7-1.213,1.7a.382.382,0,0,0-.337.413,36.1,36.1,0,0,1-2.832,4.635c-1.558,2.322-2.729,4.325-2.6,4.451.291.291,2.233-1.939,2.234-2.566a.684.684,0,0,1,.315-.6,9.012,9.012,0,0,0,1.4-2,16.785,16.785,0,0,1,1.655-2.441,51.768,51.768,0,0,0,4.63-7.138c0-.645-.593-.342-1.487.759M126.007,101.1a6.223,6.223,0,0,0,2.1,1.239c1.151.517,2.5,1.132,2.992,1.368s1,.328,1.122.206c.212-.213-5.309-3.113-5.925-3.113a.29.29,0,0,0-.289.3M269.8,102a1.334,1.334,0,0,1-1.024.4c-.427,0-.776.18-.776.4s-.272.4-.605.4a3.448,3.448,0,0,0-1.3.358c-.664.342-3.336,1.584-8.1,3.761-1.21.554-3.549,1.653-5.2,2.444a20.634,20.634,0,0,1-3.5,1.437.461.461,0,0,0-.5.4.456.456,0,0,1-.5.4c-.451,0-2.265.833-9.656,4.45a13.608,13.608,0,0,1-2.9,1.153c-.3,0-.544.18-.544.4s-.245.4-.545.4A20.055,20.055,0,0,0,231,120a21.176,21.176,0,0,1-3.606,1.6,1.649,1.649,0,0,0-1,.609c-.428.516-.389.572.251.364,2.011-.652,8.014-3.336,13.913-6.221a13.584,13.584,0,0,1,2.9-1.152c.3,0,.544-.18.544-.4s.241-.4.535-.4c.466,0,3.326-1.311,8.8-4.035a7.534,7.534,0,0,1,2.1-.765c.309,0,.562-.18.562-.4s.272-.4.605-.4a3.462,3.462,0,0,0,1.3-.356c.382-.2,1.505-.718,2.495-1.16,6.107-2.728,7.5-3.38,8.4-3.925a9.955,9.955,0,0,1,1.7-.83c.385-.122.7-.381.7-.576,0-.484-1.1-.447-1.4.047m-114.6,1.5a1.6,1.6,0,0,0,.6.9c.335.278.6.321.6.1a1.6,1.6,0,0,0-.6-.9c-.335-.278-.6-.321-.6-.1m-20.8,1.7c0,.22.36.4.8.4s.8.18.8.4.36.4.8.4.8.18.8.4.345.4.767.4.826.135.9.3a24.122,24.122,0,0,0,4.63,2.66c.493.242.9.575.9.74s.348.3.77.3.826.135.9.3a23.813,23.813,0,0,0,5.789,2.9c.3,0,.544.18.544.4s.36.4.8.4.8.18.8.4.36.4.8.4.8.18.8.4.36.4.8.4.8.18.8.4a.473.473,0,0,0,.52.4c.736,0,2.673.941,2.677,1.3,0,.165.363.3.8.3s.8.18.8.4.36.4.8.4.8.18.8.4.36.4.8.4.8.136.8.3.585.542,1.3.834,1.66.68,2.1.861c1.619.669,2.264.794,2.133.416-.073-.213-6.163-3.368-13.533-7.011s-13.76-6.832-14.2-7.088c-4.741-2.754-9-4.606-9-3.914m105.438.245c-.181.471-.076.579.39.4a4.115,4.115,0,0,1,.805-.245c.092,0,.167-.18.167-.4,0-.652-1.093-.455-1.362.245m-80.638,1.27a8.519,8.519,0,0,0,2.3,1.69,28.034,28.034,0,0,1,2.5,1.6,17.172,17.172,0,0,0,1.6,1.191,15.778,15.778,0,0,1,1.6,1.2,15.779,15.779,0,0,0,1.6,1.2,14.841,14.841,0,0,1,1.6,1.207,20.754,20.754,0,0,0,4.372,2.793c1.2,0,.513-.615-4.572-4.081a30.7,30.7,0,0,1-3.733-2.787.677.677,0,0,0-.6-.332,4.523,4.523,0,0,1-1.667-1.045c-3.084-2.684-5-3.695-5-2.64m74.8,2.934c-1.65,1.315-4.845,3.646-7.1,5.18a22.794,22.794,0,0,0-4.1,3.18c0,.472,1.078.526,1.267.063a17.6,17.6,0,0,1,2.733-2.078,38.321,38.321,0,0,0,3.115-2.258,11.217,11.217,0,0,1,1.7-1.208c.652-.385,1.185-.842,1.185-1.014s.236-.314.525-.314a2.638,2.638,0,0,0,1.3-.711,25.755,25.755,0,0,1,2.075-1.627c1.329-.937,1.7-1.685.8-1.633a18.847,18.847,0,0,0-3.5,2.42M147,122.8a1.334,1.334,0,0,0,1.024.4c.427,0,.776-.18.776-.4s-.461-.4-1.024-.4c-.58,0-.916.173-.776.4m4.2.757c0,.609,2.8,1.473,6.2,1.917a5.126,5.126,0,0,1,1.98.567,3.216,3.216,0,0,0,1.676.359,2.313,2.313,0,0,1,1.544.4,2.006,2.006,0,0,0,1.4.4,2.006,2.006,0,0,1,1.4.4,4.187,4.187,0,0,0,2.247.4c2.323,0,2.295-.6-.044-.958l-3.206-.484a3.87,3.87,0,0,1-1.823-.6A2.522,2.522,0,0,0,161,125.6a2.439,2.439,0,0,1-1.6-.4,2.439,2.439,0,0,0-1.6-.4,2.439,2.439,0,0,1-1.6-.4,2.439,2.439,0,0,0-1.6-.4,2.439,2.439,0,0,1-1.6-.4c-.307-.5-1.8-.532-1.8-.043m96.8.043c0,.22.259.4.576.4a1.059,1.059,0,0,0,.824-.4c.136-.22-.123-.4-.576-.4s-.824.18-.824.4m-8,1.6a4.964,4.964,0,0,1-2.076.394A2.744,2.744,0,0,0,236.2,126a2.5,2.5,0,0,1-1.624.4c-.757,0-1.376.18-1.376.4s.709.4,1.576.4a2.985,2.985,0,0,0,1.824-.4,2.439,2.439,0,0,1,1.6-.4,2.439,2.439,0,0,0,1.6-.4,2.5,2.5,0,0,1,1.624-.4c.757,0,1.376-.18,1.376-.4,0-.51-2.01-.51-2.8,0m-8.8,2.4c0,.22.259.4.576.4a1.059,1.059,0,0,0,.824-.4c.136-.22-.123-.4-.576-.4s-.824.18-.824.4m-30.2.8a4.407,4.407,0,0,0,1.4.344c.378,0,.3-.127-.2-.344a4.407,4.407,0,0,0-1.4-.344c-.378,0-.3.127.2.344m-8,.865a15.16,15.16,0,0,0-3.863,3.665c-.218.4.471-.139,1.533-1.2a22.343,22.343,0,0,1,2.73-2.406c1.01-.6.675-.651-.4-.059m13.573,2.371c1.085,1.19,2.059,2.254,2.164,2.364.356.372-.481-.993-1.291-2.106a8.324,8.324,0,0,0-1.826-1.765c-.625-.4-.256.181.953,1.507M118,133.2c0,.262,8.667.4,25.2.4s25.2-.138,25.2-.4-8.667-.4-25.2-.4-25.2.138-25.2.4m110.4,0c0,.252,2.733.4,7.4.4s7.4-.148,7.4-.4-2.733-.4-7.4-.4-7.4.148-7.4.4m17.2,0c0,.26,5.867.4,16.8.4s16.8-.14,16.8-.4-5.867-.4-16.8-.4-16.8.14-16.8.4m-58.15,3.65a13.4,13.4,0,0,0,.078,5.233c.15.375.273-.93.273-2.9,0-4.025,0-4.067-.351-2.333m22.243,3.95c0,.77.082,1.085.183.7a3.3,3.3,0,0,0,0-1.4c-.1-.385-.183-.07-.183.7m31.349-.513c-.605.155-.646.263-.2.538s.409.465-.242,1c-.742.613-.727.613.2,0a9.255,9.255,0,0,1,1.7-.89c1.717-.569.443-1.139-1.458-.652m-85.222.862c.209.191,2.81,1.985,5.78,3.985a182.424,182.424,0,0,1,27.1,22.387c1.538,1.505,1.691,1.806,1.227,2.4-.479.611-.462.624.168.13,1.28-1-.852-3.427-10.1-11.483-.99-.862-1.89-1.668-2-1.79-.8-.885-10.867-8.678-13.68-10.588a21.359,21.359,0,0,1-3.334-2.509c.215-.216,15.571,7.539,20.314,10.259.825.473,2.175,1.241,3,1.707s1.978,1.186,2.562,1.6a5.36,5.36,0,0,0,1.29.753c.125,0,2.12,1.247,4.433,2.771a48.328,48.328,0,0,0,4.993,3.022c.7.221,7.119-3.582,8.622-5.1.618-.627-.407-.008-4.328,2.612l-3.527,2.358-2.673-1.69c-1.469-.93-3.655-2.32-4.857-3.09-2.146-1.374-4.945-3.063-7.515-4.534l-2.8-1.6c-8.116-4.661-26.575-13.329-24.68-11.59M232,144.4c-1.21.639-2.02,1.162-1.8,1.162a13.689,13.689,0,0,0,2.6-1.162c1.21-.639,2.02-1.162,1.8-1.162A13.69,13.69,0,0,0,232,144.4m-43.4.4a3.445,3.445,0,0,0,.821,1.2c.11,0-.08-.54-.421-1.2a3.445,3.445,0,0,0-.821-1.2c-.11,0,.08.54.421,1.2m17.772,2.511a24.749,24.749,0,0,1-2.2,1.795c-.425.278-.232.249.428-.065a9.921,9.921,0,0,0,2.375-1.805c1.524-1.6,1.213-1.565-.6.075m19.928-.084a5.166,5.166,0,0,0-1.5.991c0,.109.72-.169,1.6-.618a5.833,5.833,0,0,0,1.6-1.008c0-.262,0-.261-1.7.635m4.7,1.008-1.2,1.031,1.3-.86a5.413,5.413,0,0,0,1.3-1.033c0-.3-.169-.2-1.4.862m-3.415,2.594-1.385,1.229,1.5-1.077c1.326-.951,1.757-1.381,1.385-1.381a13.5,13.5,0,0,0-1.5,1.229m-29.885-.142a8.9,8.9,0,0,0,2.2,0c.605-.092.11-.167-1.1-.167s-1.705.075-1.1.167m19.8,1.142c-1.495.811-1.4,1.149.1.371a3.583,3.583,0,0,0,1.2-.81c0-.258-.043-.243-1.3.439m6.5,1.825-1.8,1.631,1.694-1.272c1.474-1.106,2.42-2.039,2.03-2A23.528,23.528,0,0,0,224,153.654m-9.3-.225c-1.495.811-1.4,1.149.1.371a3.584,3.584,0,0,0,1.2-.81c0-.258-.043-.243-1.3.439m-2.8,1.6c-1.495.811-1.4,1.149.1.371a3.583,3.583,0,0,0,1.2-.81c0-.258-.043-.243-1.3.439M209,156.8c-.66.437-1.02.792-.8.788.4-.006,2.576-1.565,2.2-1.576a6.747,6.747,0,0,0-1.4.788m9.678,1.013c-.618.543-.964.987-.77.987a3.525,3.525,0,0,0,1.292-1c1.2-1.272.931-1.266-.522.013m-6.788,6.227c-6.674,6.328-6.479,5.777-2.972,8.388,12.7,9.463,22.917,23.876,25.5,35.985.652,3.065.034,12.463-.857,13.013a1.332,1.332,0,0,0-.358,1,3.83,3.83,0,0,1-.358,1.476c-.2.382-.921,1.865-1.609,3.295a45.387,45.387,0,0,1-8.1,10.91L220.342,241l.314-2.8a70.529,70.529,0,0,0-1.03-21.2c-.215-.88-.5-2.14-.638-2.8a15.2,15.2,0,0,0-.563-2c-.173-.44-.531-1.52-.8-2.4s-.632-1.96-.815-2.4A105.235,105.235,0,0,0,202.3,182.1c-3.392-4.51-3.125-4.347-4.538-2.784L196.6,180.6l1.134-1,1.134-1,.666.834c2.471,3.093,6.205,8.345,8.224,11.566a147.363,147.363,0,0,1,7.366,14.03c.248.643.833,2.16,1.3,3.37a70.337,70.337,0,0,1,3.055,10.8c.9,3.953,1,17.077.158,20.5-.757,3.086-.467,3.171,2.193.647,21.14-20.067,16.915-44.844-11.529-67.618a23.39,23.39,0,0,1-3.5-3.133,62.679,62.679,0,0,1,5.3-5.362c2.915-2.767,5.209-5.032,5.1-5.034s-2.5,2.176-5.307,4.838m-41.963-1.679a9.318,9.318,0,0,1,5.3,4.5c.264.639.56,1.082.656.985,1.174-1.174-4.863-6.283-7.37-6.237-.392.007.244.344,1.414.748m56.987.083c-9.659,3.713-7.049,17.785,3.286,17.722a9.13,9.13,0,0,0,3.1-17.769c-2.63-.984-3.727-.976-6.387.047m-65.56.847a8.47,8.47,0,0,0-2.6,2.909c-.239.44.154.1.875-.747a13.214,13.214,0,0,1,2.541-2.3c.678-.413,1.031-.752.786-.753a4.469,4.469,0,0,0-1.6.89m72.913.135c4.932,2.26,6.06,9.318,2.159,13.5-5.917,6.35-16.1,1.022-14.639-7.656.9-5.328,7.188-8.274,12.48-5.848m-107.859,4.783a1.087,1.087,0,0,0,1.077.414c.306-.118.454-.048.329.154-.382.618.353.775.893.19.418-.452.314-.591-.6-.791-.609-.134-1.357-.322-1.664-.419-.461-.145-.467-.068-.035.452M266,169.682a151.152,151.152,0,0,0-15.141,7.983,29.608,29.608,0,0,1-2.715,1.535c-.883,0-13.075,9.02-15.229,11.267l-1.286,1.341,1.731,3.4c.951,1.868,2.049,4.251,2.439,5.3.909,2.434,1.437,2.394,2.632-.2,4.267-9.256,15-20.788,26.262-28.2a28.111,28.111,0,0,0,4.1-3c.012-.5-.892-.307-2.793.582m-132.8.907c0,.317,2.9,1.444,3.128,1.216.113-.113.107-.2-.012-.2a11.508,11.508,0,0,1-1.667-.605c-.8-.333-1.449-.516-1.449-.406m131.2.753a22.134,22.134,0,0,1-2.5,1.879C255.32,177.793,242,191.03,242,193a18.157,18.157,0,0,1-1.525,2.524,35.519,35.519,0,0,0-2.211,3.761c-.918,1.986-1.406,2.2-1.882.837a63.619,63.619,0,0,0-3.6-7.231c-.545-.86-.476-1.007,1.222-2.614a112.449,112.449,0,0,1,13.2-9.777c.77-.437,3.02-1.742,5-2.9,5.117-2.992,12.2-6.624,12.2-6.257m-80,3.1-2.6,2.43,2.7-2.286c2.373-2.009,2.974-2.606,2.6-2.581-.055,0-1.27,1.1-2.7,2.437m-49.6-.719a7.562,7.562,0,0,0,1.468,1.3c.808.616,1.343.916,1.188.666-.316-.512-2.656-2.244-2.656-1.966m5.6,4.581a16.616,16.616,0,0,0,2.742,2.277c.15-.142-1.616-1.747-3.942-3.583-.77-.608-.23-.02,1.2,1.306m4.4-1.542a3.823,3.823,0,0,0,1.4.821c.428,0-.295-.551-1.6-1.225q-.8-.412.2.4m28.581.888c-1.211,1.266-1.33,1.493-.509.972.9-.568,2.634-2.624,2.218-2.624a16.531,16.531,0,0,0-1.709,1.652M178.4,179.8a7.623,7.623,0,0,0-1.536,1.8,12.724,12.724,0,0,0,2.031-1.8c.99-.99,1.681-1.8,1.536-1.8a11.185,11.185,0,0,0-2.031,1.8m-12.863.706a8.683,8.683,0,0,0,3.173.016c1.185-.28.883-.342-1.737-.355-2.866-.015-3.005.018-1.436.339m30.407.994c-1.151,1.389-1.638,2.1-1.44,2.1a6.4,6.4,0,0,0,1.269-1.4c1.09-1.429,1.222-1.968.171-.7M154.5,182.633a14.545,14.545,0,0,0,2.14,1.751c1.047.751,1.8,1.194,1.666.983a14.544,14.544,0,0,0-2.14-1.751c-1.047-.751-1.8-1.194-1.666-.983m20.048,1.467c-1.429,1.534-4.585,5.573-3.672,4.7a77.977,77.977,0,0,0,5.016-6,9.983,9.983,0,0,0-1.344,1.3m19,.6c-1.151,1.389-1.638,2.1-1.44,2.1a6.4,6.4,0,0,0,1.269-1.4c1.09-1.429,1.222-1.968.171-.7m-43.97,2.7c2.36,2.7,2.706,3.018,1.727,1.6a17,17,0,0,0-2.153-2.4c-.978-.887-.867-.678.426.8m9.226-1.672a27.542,27.542,0,0,0,2.9,2.51c1.6,1.281,2.675,2.048,2.4,1.7-.587-.733-5.3-4.48-5.3-4.214m31.522,3.572c-1.425,2.15-2.624,4.277-2.185,3.875.209-.191,2.652-3.9,3.607-5.475.876-1.445-.226-.206-1.422,1.6m-37.908,1.322c.016.4,1.981,2.933,1.984,2.556a7.807,7.807,0,0,0-1-1.578c-.55-.745-.994-1.185-.986-.978m15.673,1.878c-1.46,2.156-1.775,2.7-1.567,2.7a14.451,14.451,0,0,0,1.627-2.2,9.864,9.864,0,0,0,1.276-2.2,8.481,8.481,0,0,0-1.336,1.7m18.927,2.135c-.373.569-.609,1.1-.525,1.187s.469-.381.855-1.034c.862-1.46.6-1.579-.33-.153m-24.033,1.8a2.918,2.918,0,0,0-.482,1.4c.087.087.457-.47.823-1.237.822-1.725.537-1.857-.341-.158m-6.621.163c.674,1.3,1.228,2.028,1.225,1.6a3.823,3.823,0,0,0-.821-1.4q-.815-1-.4-.2m29.04,1c-.341.66-.531,1.2-.421,1.2a3.445,3.445,0,0,0,.821-1.2c.341-.66.531-1.2.421-1.2a3.445,3.445,0,0,0-.821,1.2M158.2,200a3.445,3.445,0,0,0,.821,1.2c.11,0-.08-.54-.421-1.2a3.445,3.445,0,0,0-.821-1.2c-.11,0,.08.54.421,1.2m1,1.917a1.971,1.971,0,0,0,1.28,1.283c.589,0,.328-.6-.48-1.107-.44-.275-.8-.354-.8-.176m2.622,5.1a3.929,3.929,0,0,0-.1,1.638c.1.1.3-.479.452-1.282a3.929,3.929,0,0,0,.1-1.638c-.1-.1-.3.479-.452,1.282M144,208.4c0,.22-.467.4-1.037.4-.7,0-1.106.259-1.247.8-.22.842-.757,1.068-.983.413-.085-.247-.351-.249-.733-.006-.508.322-.488.382.124.387.4,0,.611.187.474.409s.183.206.777-.064c.564-.257,1.025-.619,1.025-.8s.36-.336.8-.336.8-.18.8-.4.36-.4.8-.4.8-.18.8-.4-.36-.4-.8-.4-.8.18-.8.4m110.8,0c0,.22.345.4.767.4s.826.135.9.3a8.075,8.075,0,0,0,1.893,1.26c.969.527,1.633.752,1.477.5-.174-.281,0-.462.439-.466.614,0,.633-.065.124-.394-.814-.526-1.309-.5-.968.052.17.274.061.379-.276.267a.852.852,0,0,1-.556-.747c0-.309-.36-.626-.8-.705a2.754,2.754,0,0,1-1.18-.506c-.513-.487-1.82-.46-1.82.039M161.342,213c0,1.98.066,2.84.15,1.912a26.022,26.022,0,0,0,0-3.6c-.083-1.052-.152-.292-.153,1.688m-22.942-.964q-1,.814-.2.4c1.305-.674,2.028-1.228,1.6-1.225a3.822,3.822,0,0,0-1.4.821m122.22-.5a14.748,14.748,0,0,0,3.38,1.95,14.383,14.383,0,0,0-3.471-2.286c-.159,0-.118.151.091.336m-129.246,3.1a32.674,32.674,0,0,0-3.774,2.845c-.55.553.08.208,1.4-.767s3.075-2.179,3.9-2.677c1.3-.787,1.806-1.24,1.374-1.24-.069,0-1.374.828-2.9,1.839m47.255-.41a2.337,2.337,0,0,0-.1,1.237c.1.094.292-.308.439-.9a2.336,2.336,0,0,0,.1-1.237c-.095-.094-.292.308-.439.9M266.2,215.31a13.41,13.41,0,0,0,2.3,1.872c.166.01-.374-.572-1.2-1.293-2.48-2.165-3.246-2.568-1.1-.579m1-1.589a15.344,15.344,0,0,0,2.3,1.642c1.265.812,1.808,1.058,1.206.547-1.188-1.01-3.506-2.457-3.506-2.189M132,216.844l-2.6,2.43,2.7-2.286c2.373-2.009,2.974-2.606,2.6-2.581-.055,0-1.27,1.1-2.7,2.437m45.8.756a2.949,2.949,0,0,0-.091,1.442c.1.1.3-.389.441-1.092.333-1.667.01-1.99-.35-.35m96.789,1.917c1.534,1.586,2.853,2.883,2.931,2.883.314,0-1.843-2.31-3.72-3.983-1.4-1.244-1.157-.912.789,1.1M161.668,218.4c.02,1.039.65,2.746.664,1.8a4.7,4.7,0,0,0-.332-1.6c-.211-.49-.339-.568-.332-.2M270,218.542a11.142,11.142,0,0,0,1.3,2c.715.96,1.528,2.086,1.806,2.5.291.437.265.25-.061-.442-.58-1.227-3.045-4.513-3.045-4.058M124.4,220.2c-.515.55-.862,1.066-.769,1.148s.587-.368,1.1-1c1.146-1.412.944-1.5-.329-.149m3.764.813c-.592.776-1.006,1.476-.921,1.556s.649-.555,1.252-1.411c1.369-1.942,1.122-2.05-.331-.145M176.9,223.4c0,.88.086,1.193.182.7a4.366,4.366,0,0,0-.008-1.6c-.1-.382-.179.025-.174.9m-56.32,2.237a2.918,2.918,0,0,0-.482,1.4c.087.087.457-.47.823-1.237.822-1.725.537-1.857-.341-.158m5.268-.222a3.854,3.854,0,0,0-.215,1.318c.019.367.193.136.387-.513.377-1.262.244-1.887-.172-.805M176.54,230c0,1.87.069,2.635.153,1.7a22.968,22.968,0,0,0,0-3.4c-.084-.935-.153-.17-.153,1.7m97.888-2.367a5.506,5.506,0,0,0,.391,1.767c.252.558.288.315.119-.8-.283-1.857-.551-2.364-.51-.967m5.628-.433a4.407,4.407,0,0,0,.344,1.4c.217.5.344.578.344.2a4.407,4.407,0,0,0-.344-1.4c-.217-.5-.344-.578-.344-.2M119.45,228.85a25.219,25.219,0,0,0,.09,7.074c.143.508.26-1.157.26-3.7,0-5.137,0-5.129-.35-3.374m161.484,3.95c0,1.65.071,2.325.157,1.5a17.273,17.273,0,0,0,0-3c-.086-.825-.157-.15-.157,1.5m-155.328-1.367A4.043,4.043,0,0,0,126,233.2c.26.409.3.09.137-1-.3-1.977-.534-2.314-.526-.767m42.794,1.639a7.848,7.848,0,0,0,1.7,2.213c.935.969,1.232,1.211.66.538s-1.336-1.668-1.7-2.212-.66-.786-.66-.539m105.632.07a12.056,12.056,0,0,1-1.025,2.519c-.547,1.088-.837,1.881-.647,1.764.572-.354,2.1-3.867,1.892-4.364-.122-.3-.2-.269-.22.081m-97.2,3.691A7.123,7.123,0,0,0,177.2,239c.223.515.264.087.115-1.2-.274-2.378-.529-2.881-.49-.967M128,237.412a5.629,5.629,0,0,0,1,1.461c.55.654,1,1.066,1,.915a5.629,5.629,0,0,0-1-1.461c-.55-.654-1-1.066-1-.915m140.8,3.68c-2.132,2.181-2.474,2.646-1.183,1.608,1.492-1.2,4.731-4.73,4.3-4.689-.066.007-1.469,1.393-3.119,3.081m-93.025.008c1.452,1.607,2.244,1.68,2.171.2-.047-.943-.08-.972-.228-.2-.222,1.153-.415,1.133-1.9-.2l-1.222-1.1,1.175,1.3m-53.384.888a7.348,7.348,0,0,0,1.3,1.468c.25.155-.05-.38-.666-1.188-1.337-1.753-1.841-1.976-.634-.28m10.773.947c.585.728,2.836,2.442,2.836,2.159a11.306,11.306,0,0,0-1.7-1.511c-.935-.743-1.446-1.035-1.136-.648M274.589,245.3l-2.789,2.9,2.9-2.789c2.694-2.591,3.083-3.011,2.789-3.011-.061,0-1.366,1.305-2.9,2.9M261.8,246.4c-.66.437-1.02.792-.8.788.4-.006,2.576-1.565,2.2-1.576a6.746,6.746,0,0,0-1.4.788m-134.2.925a7.562,7.562,0,0,0,1.468,1.3c.808.616,1.343.916,1.188.666-.316-.512-2.656-2.244-2.656-1.966m141.887,2.043c-2.361,1.634-2.923,2.207-1.181,1.2,1.344-.773,3.65-2.549,3.294-2.536a16.658,16.658,0,0,0-2.113,1.332m-138.687.411a3.445,3.445,0,0,0,1.2.821c.66.341,1.2.531,1.2.421a3.445,3.445,0,0,0-1.2-.821c-.66-.341-1.2-.531-1.2-.421m13.6.01c0,.317,2.9,1.444,3.128,1.216.113-.113.107-.205-.012-.205a11.508,11.508,0,0,1-1.667-.6c-.8-.333-1.449-.516-1.449-.406M252,251.2c-.99.415-1.6.765-1.349.778A9.059,9.059,0,0,0,254,250.6c0-.247.112-.281-2,.6m13.5.629c-1.495.811-1.4,1.149.1.371a3.583,3.583,0,0,0,1.2-.81c0-.258-.043-.243-1.3.439m-104.7,3.753a2.909,2.909,0,0,0,1.367.412c1.023.008.7-.221-.767-.55-.876-.2-1.038-.159-.6.138m77.4.018c-.5.217-.578.344-.2.344a4.407,4.407,0,0,0,1.4-.344c.5-.217.578-.344.2-.344a4.407,4.407,0,0,0-1.4.344m-74.2.794a3.423,3.423,0,0,0,1.567.4c1.284.008.958-.219-.767-.536-.985-.181-1.222-.14-.8.136m4,.806a7.714,7.714,0,0,0,2,.313c.9-.007.878-.039-.2-.313-1.692-.431-3.144-.431-1.8,0m62.6,0c-1.089.277-1.107.307-.2.325a5.214,5.214,0,0,0,1.8-.325c.986-.424.066-.424-1.6,0m-57.8.787c.991.33,3.887.548,3.567.267a13.016,13.016,0,0,0-2.367-.373c-1.42-.147-1.846-.11-1.2.106m51.7.289a3.3,3.3,0,0,0,1.4,0c.385-.1.07-.183-.7-.183s-1.085.082-.7.183m-45.9.509c1.222.326,4.47.535,4.167.268a16.713,16.713,0,0,0-2.767-.368c-1.638-.139-2.156-.1-1.4.1m39.3.3a5.661,5.661,0,0,0,1.8,0c.5-.1.09-.173-.9-.173s-1.4.078-.9.173m-32.6.4a8.9,8.9,0,0,0,2.2,0c.6-.092.11-.167-1.1-.167s-1.7.075-1.1.167m21.3.113-5.2.237,4.8.035c2.64.019,5.97-.1,7.4-.258l2.6-.292-2.2.021c-1.21.011-4.54.127-7.4.257m-15.283.3c1.494.077,3.834.077,5.2,0s.143-.141-2.717-.141-3.978.065-2.483.142m-35.517.5a4.407,4.407,0,0,0,1.4.344c.378,0,.3-.127-.2-.344a4.407,4.407,0,0,0-1.4-.344c-.378,0-.3.127.2.344m87.2,0c-1.019.438.032.438,1.4,0,.8-.257.843-.323.2-.332a4.7,4.7,0,0,0-1.6.332m-84.567.544a6.356,6.356,0,0,0,1.367.412c.876.2,1.038.159.6-.138-.54-.365-2.368-.62-1.967-.274M236.2,262c-1.019.438.032.438,1.4,0,.8-.257.843-.323.2-.332a4.7,4.7,0,0,0-1.6.332m-4.2.8c-1.344.431.108.431,1.8,0,1.078-.274,1.1-.306.2-.313a7.714,7.714,0,0,0-2,.313m-61.967.549a11.051,11.051,0,0,0,2.167.379c1.349.156,1.674.121,1-.108-1-.34-3.482-.552-3.167-.271m6.767,1.071c2.414.43,4.306.393,2.2-.043a15.334,15.334,0,0,0-2.8-.3c-.9.02-.75.107.6.347m46.3-.137a4.366,4.366,0,0,0,1.6-.008c.382-.1-.025-.179-.9-.174s-1.193.086-.7.182m-3,.393a3.3,3.3,0,0,0,1.4,0c.385-.1.07-.183-.7-.183s-1.085.082-.7.183m-36.8.415a17.273,17.273,0,0,0,3,0c.825-.086.15-.157-1.5-.157s-2.325.071-1.5.157m30.4,0a17.273,17.273,0,0,0,3,0c.825-.086.15-.157-1.5-.157s-2.325.071-1.5.157m-24.6.4a12.694,12.694,0,0,0,2.6,0c.715-.088.13-.161-1.3-.161s-2.015.073-1.3.161m19.2,0a12.694,12.694,0,0,0,2.6,0c.715-.088.13-.161-1.3-.161s-2.015.073-1.3.161m-90.9,10c-.95.24-2.558,1.306-1.969,1.306a1.63,1.63,0,0,0,.9-.487,5.587,5.587,0,0,1,2.78-.468c1.587.014,1.985-.07,1.293-.273a4.976,4.976,0,0,0-3-.078m113.4.106c-.792.254-.833.32-.2.32a7.239,7.239,0,0,0,1.8-.32c.792-.254.833-.32.2-.32a7.239,7.239,0,0,0-1.8.32m-100.487.295a32.514,32.514,0,0,0,4,0c1.038-.082.087-.148-2.113-.147s-3.049.068-1.887.149m29.587-.006a12.694,12.694,0,0,0,2.6,0c.715-.088.13-.161-1.3-.161s-2.015.073-1.3.161m16.612.006a26.019,26.019,0,0,0,3.6,0c.928-.084.068-.151-1.912-.15s-2.74.07-1.688.153m29.588,0a29.38,29.38,0,0,0,3.8,0c1.045-.082.19-.15-1.9-.15s-2.945.068-1.9.15m42.471.335a2.077,2.077,0,0,1,.629,1.066c0,.241.1.334.232.206.324-.324-.568-1.9-1.075-1.9-.228,0-.131.283.214.629m12.729-.338a17.273,17.273,0,0,0,3,0c.825-.086.15-.157-1.5-.157s-2.325.071-1.5.157m13.6-.026c-.368.149-.5,1.761-.5,6.126,0,6.882-.313,6.446,4.533,6.333l3.267-.075-3.6-.225L275,287.8V276.2l3.6-.224,3.6-.225-3.4-.044a23.138,23.138,0,0,0-3.9.158M121.9,277c.148.77-.024,1.082-.755,1.375-.55.22-.686.389-.326.4a1.7,1.7,0,0,0,1.1-.455c.55-.55.653-2.32.135-2.32-.189,0-.258.448-.154,1m14.592.2c0,.77.082,1.085.183.7a3.3,3.3,0,0,0,0-1.4c-.1-.385-.183-.07-.183.7m45.485-.2c-.168,1.136-.3,1.211-2.378,1.4l-2.2.2V280c0,1.327.073,1.4,1.4,1.436,1.4.035,1.4.035.1-.124-2.418-.3-1.89-2.51.6-2.518,2.427-.008,3-.385,2.81-1.837l-.153-1.157-.179,1.2m13.471-.385a10.832,10.832,0,0,0-.249,2.618c0,1.3-.169,1.969-.5,1.973s-.3.134.1.388c.507.323.634-.065.819-2.506.237-3.122.213-3.47-.17-2.473m8.244.585c0,.77.082,1.085.183.7a3.3,3.3,0,0,0,0-1.4c-.1-.385-.183-.07-.183.7m24,.168c-.821.752-1.4,1.427-1.294,1.5s.885-.543,1.724-1.368c1.909-1.877,1.583-1.977-.43-.132M141.35,280.6c0,2.42.066,3.358.146,2.085a40.081,40.081,0,0,0,0-4.4c-.08-1.147-.145-.105-.144,2.315m32.809,1.4c0,3.19.062,4.495.138,2.9s.076-4.2,0-5.8-.138-.29-.138,2.9m24.4,0c0,3.19.062,4.495.138,2.9s.076-4.2,0-5.8-.138-.29-.138,2.9M129.5,278.688c.867.159.9.322.9,4.459,0,4.629.25,5.286,1.98,5.206.946-.044.933-.066-.18-.3l-1.2-.256-.2-4.6c-.2-4.571-.206-4.6-1.2-4.636-.87-.033-.883-.017-.1.127m4.273.239a30.855,30.855,0,0,0-.072,4.7l.13,4.173.085-4.473.084-4.474,1.1-.166,1.1-.167-1.113-.06c-.611-.033-1.2.177-1.314.467m27.2.01c-.761,1.983.041,6.464,1.18,6.594a2.324,2.324,0,0,0,1.5-.219c.2-.2-.246-.282-1.048-.188l-1.4.164v-6.576l1.372.161c.755.088,1.284.017,1.176-.157-.327-.53-2.559-.352-2.779.221m48.715,3.763.085,4.3.129-4.074c.122-3.839.18-4.084,1.016-4.246.743-.143.708-.18-.214-.226l-1.1-.054.084,4.3m20.478-3.4-.762.9.88-.744a3.022,3.022,0,0,1,2.466-.593c.873.084,1.5.013,1.4-.156-.443-.716-3.223-.3-3.981.593m6.438-.5a1.6,1.6,0,0,1-1.124.446c-.665.036-.709.091-.183.228a2.333,2.333,0,0,0,1.589-.446c.493-.345.687-.628.431-.628a.936.936,0,0,0-.713.4m26.8-.1a4.691,4.691,0,0,1,1.8.64c.522.4.529.374.051-.235a2.165,2.165,0,0,0-1.8-.64l-1.251.06,1.2.175m14.2,1.3v1.6l1.9-.07,1.9-.07-1.7-.153c-2.888-.26-2.559-2.4.4-2.612l2.1-.147-2.3-.074-2.3-.074V280m-12.62.769a3.667,3.667,0,0,1-1.58.54l-1.2.171,1.251.06A2.431,2.431,0,0,0,265.2,281c.545-.657.388-.822-.22-.231m-13.78.515a10.948,10.948,0,0,0,1.411,3.116c.11,0-.078-.666-.418-1.479-.6-1.435-.993-2.083-.993-1.637M122.255,282.6c.925,1.579.945,1.6.945,1.111a3.418,3.418,0,0,0-.824-1.367l-.823-.944.7,1.2m125.359-.226a3.092,3.092,0,0,0-.382,1.3c.017.289.219.011.448-.619.313-.859.5-1.009.762-.6.271.426.347.393.352-.155.008-.933-.664-.891-1.18.074m34.079.426c0,.77.082,1.085.183.7a3.3,3.3,0,0,0,0-1.4c-.1-.385-.183-.07-.183.7m-90.709.121a13.768,13.768,0,0,0-.082,3.1c.147,2.139.151,2.13.224-.521.091-3.308.021-3.308,3.464,0l2.81,2.7-2.99-3.1c-3.433-3.56-3.128-3.366-3.426-2.179m-25.738.1a2.609,2.609,0,0,1-.445,1.3c-.219.265-.111.232.239-.072a1.444,1.444,0,0,0,.445-1.3c-.173-.673-.2-.666-.239.073m3.2.247a7.377,7.377,0,0,1-.276,1.4c-.218.7-.207.7.227.02a2.045,2.045,0,0,0,.276-1.4c-.162-.619-.185-.621-.227-.02m-49.794.584a4.788,4.788,0,0,1,1.093,1.349c.167.417.213.371.148-.152A2.333,2.333,0,0,0,118.8,283.7l-1-.6.852.749m110.548-.375c0,1.384,4.242,2.951,4.938,1.824.1-.165-.581-.239-1.519-.164-1.463.116-1.826-.019-2.562-.954-.471-.6-.857-.917-.857-.706m-80.768.6a1.546,1.546,0,0,1-.732,1.088c-.385.224-.5.413-.249.42a1.517,1.517,0,0,0,1.218-1.675c-.132-.33-.217-.271-.237.167m28.946.355c-.445.721.314,1.11,2.42,1.241,1.858.115,2.016.208,2.253,1.324l.254,1.2.048-1.257c.055-1.46-.43-1.743-2.986-1.743-2.259,0-2.311-.705-.067-.907l1.7-.153-1.676-.07a3,3,0,0,0-1.946.365m89.822-.282a7.446,7.446,0,0,0,1.421,2.647c.11,0-.1-.585-.462-1.3-.742-1.46-.959-1.764-.959-1.347m10.4.647c0,.716.242.792,2.3.726l2.3-.074-2.1-.147c-2.525-.177-2.771-.8-.4-1.012l1.7-.153-1.9-.07c-1.657-.061-1.9.032-1.9.73m-42.2-.115a3.111,3.111,0,0,1,1.18.554,1.361,1.361,0,0,0,.776.361c.219,0,.048-.264-.38-.587a2.909,2.909,0,0,0-1.576-.554l-.8.034.8.192m-8.988.374c-.012.474,2.6,2.944,3.1,2.937.157,0-.3-.464-1.008-1.024a8.632,8.632,0,0,1-1.687-1.7c-.217-.372-.4-.47-.407-.217m-75.805,1.665c-.869,1.019-.967,1.258-.359.878.8-.5,1.941-1.976,1.68-2.179a5.483,5.483,0,0,0-1.321,1.3m-8.687-.474c.482.9,1.618,1.953,1.844,1.707.079-.086-.4-.689-1.068-1.34-.835-.814-1.077-.928-.776-.367m103.672,1.05c-.385.794-.372.821.113.223a4.132,4.132,0,0,1,2.722-.826l2.173-.149-2.286-.074c-2.013-.065-2.338.034-2.722.826m8.091-.3c.144.988-1.762,1.347-2.807.529-.607-.475-.62-.458-.127.171,1.09,1.39,4.17.514,3.211-.913-.316-.471-.37-.429-.277.213m11.613.2a2.049,2.049,0,0,0,1.949,1.056c1.244.052,1.257.042.155-.127a3.713,3.713,0,0,1-1.949-1.056l-.749-.873.594,1m-119.8,1.282a6.063,6.063,0,0,0,2.6,0c1.092-.286.883-.341-1.3-.341s-2.392.055-1.3.341m14.391-.193a14.938,14.938,0,0,0,2.8,0c.83-.087.249-.159-1.291-.161s-2.219.069-1.509.158m16.621.006a26.019,26.019,0,0,0,3.6,0c.928-.084.068-.151-1.912-.15s-2.74.07-1.688.153m56.088.1c-1.078.274-1.1.306-.2.313a7.714,7.714,0,0,0,2-.313c1.344-.431-.108-.431-1.8,0m-39.4,8.8c-.792.254-.833.32-.2.32a7.239,7.239,0,0,0,1.8-.32c.792-.254.833-.32.2-.32a7.238,7.238,0,0,0-1.8.32m-71.062.617a.951.951,0,0,0,.013.867c.137.137.249-.051.249-.417,0-.793.431-.853,1.2-.167.477.425.481.4.031-.2-.654-.864-1.183-.893-1.494-.083M144,298.5a5.516,5.516,0,0,0-.777,1.7c.009.22.373-.275.808-1.1.944-1.788,1.35-1.864,2.144-.4.328.6.6.915.613.689.076-1.956-1.778-2.547-2.788-.889m12.271-1.033a38.786,38.786,0,0,0-.267,6.157c0,6.215.071,6.447,1.933,6.336.376-.022.23-.161-.333-.317l-1-.278-.111-5.883c-.132-7.047-.186-7.007,3.911-2.882,3.647,3.671,3.616,3.67,3.529.1l-.07-2.9-.23,2.714-.229,2.714-2.99-3.014c-2.86-2.883-3.55-3.341-4.143-2.747m21.9.362a2.078,2.078,0,0,1,.629,1.066c0,.241.1.334.232.206.324-.324-.568-1.9-1.075-1.9-.228,0-.131.283.214.629m30.129-.336a22.972,22.972,0,0,0,3.4,0c.935-.084.17-.153-1.7-.153s-2.635.069-1.7.153m11.438.324a.951.951,0,0,0,.013.867c.137.137.249-.051.249-.417,0-.793.431-.853,1.2-.167.477.425.481.4.031-.2-.654-.864-1.183-.893-1.494-.083m20.562-.324a22.972,22.972,0,0,0,3.4,0c.935-.084.17-.153-1.7-.153s-2.635.069-1.7.153m11.438.324a.951.951,0,0,0,.013.867c.137.137.249-.051.249-.417,0-1.113.5-.79,3.6,2.333,2.921,2.941,3.6,3.427,3.6,2.576,0-.233-.148-.332-.33-.219s-1.662-1.138-3.29-2.777c-3.122-3.143-3.462-3.352-3.842-2.363m9.062-.26,1,.278.111,5.883c.133,7.061.161,7.04-3.885,2.882-3.584-3.683-3.645-3.685-3.548-.1l.079,2.9.141-2.771.142-2.771,3.145,3.127c4.324,4.3,4.415,4.23,4.415-3.33,0-6.3-.068-6.527-1.933-6.415-.376.022-.23.161.333.317m8.2-.1c2.8.294,6.912.322,6.74.045a15.091,15.091,0,0,0-4.064-.236c-2.132.035-3.336.121-2.676.191m-78.9,1.513c-.821.752-1.4,1.427-1.294,1.5s.885-.543,1.724-1.368c1.909-1.877,1.583-1.977-.43-.132m-58.72.5c-.616.808-.916,1.343-.666,1.188.512-.316,2.244-2.656,1.966-2.656a7.562,7.562,0,0,0-1.3,1.468m97.6,0c-.616.808-.916,1.343-.666,1.188.512-.316,2.244-2.656,1.966-2.656a7.562,7.562,0,0,0-1.3,1.468M192.562,300.9l-.762.9.88-.744a3.022,3.022,0,0,1,2.466-.593c.873.084,1.5.013,1.4-.156-.443-.716-3.223-.3-3.981.593m6.438-.5a1.6,1.6,0,0,1-1.124.446c-.665.036-.709.091-.183.228a2.333,2.333,0,0,0,1.589-.446c.493-.345.687-.628.431-.628a.936.936,0,0,0-.713.4m9.956.171c-.593,1.544,0,2.428,1.644,2.463l1.6.034-1.5-.157c-2.7-.283-2.212-2.419.6-2.616l2.1-.147-2.113-.074c-1.513-.053-2.174.088-2.331.5m32,0c-.593,1.544,0,2.428,1.644,2.463l1.6.034-1.5-.157c-2.7-.283-2.212-2.419.6-2.616l2.1-.147-2.113-.074c-1.513-.053-2.174.088-2.331.5m28.132-.284c.844.156.893.381,1.019,4.638l.131,4.475-.019-4.6-.019-4.6-1-.039c-.844-.032-.862-.013-.112.126m4.2,4.213.085,4.5.128-4.274c.122-4.047.176-4.283,1.015-4.445.744-.144.71-.181-.213-.227L273.2,300l.085,4.5m-131.813-.681c-.94,1.97-.808,2.3.175.443a4.306,4.306,0,0,0,.654-1.7c-.087-.086-.46.477-.829,1.252m39.328-.935A10.948,10.948,0,0,0,182.211,306c.11,0-.078-.666-.418-1.479-.6-1.435-.993-2.083-.993-1.637m15.7.2a8.9,8.9,0,0,0,2.2,0c.6-.092.11-.167-1.1-.167s-1.705.075-1.1.167m-19.286.887a3.092,3.092,0,0,0-.382,1.3c.017.289.219.011.448-.619.313-.859.5-1.009.762-.6.271.426.347.393.352-.155.008-.933-.664-.891-1.18.074m17.428-.14a1.656,1.656,0,0,0,.091,1.232c.235.42.334.233.334-.635,0-1.394-.077-1.5-.425-.6m18.345.5c.012.993-.131,1.084-1.987,1.27-2.892.289-2.814,1.387.1,1.435l2.1.035-2-.156c-2.36-.184-2.708-.914-.435-.914,2.449,0,4.039-1.607,2.52-2.547-.173-.106-.308.288-.3.877m32,0c.012.993-.131,1.084-1.987,1.27-2.892.289-2.814,1.387.1,1.435l2.1.035-2-.156c-2.36-.184-2.708-.914-.435-.914,2.449,0,4.039-1.607,2.52-2.547-.173-.106-.308.288-.3.877m-85.787-.263c0,.256.125.341.279.187s1.665,1.1,3.358,2.783c2.917,2.9,4.025,3.42,3.917,1.839-.042-.609-.065-.607-.23.024-.28,1.072-.525.921-3.724-2.3-2.959-2.978-3.6-3.43-3.6-2.533m40.874,1.6c-.064,1.953-.226,2.384-1.174,3.122-.688.535-.788.7-.267.455,1.474-.709,1.818-1.476,1.663-3.712l-.148-2.132-.074,2.267m-75.2,1.633.075,2.5.146-2.332c.132-2.126.205-2.284.824-1.8s.624.462.13-.168c-.958-1.222-1.253-.77-1.175,1.8m97.6,0,.075,2.5.146-2.332c.132-2.126.2-2.284.824-1.8s.624.462.13-.168c-.958-1.222-1.253-.77-1.175,1.8m-93.325-.669c-.958.958-1.078.985-1.691.372-.363-.363-.66-.474-.66-.246,0,.388,1.59,1.465,1.734,1.175.036-.072.5-.627,1.036-1.232,1.224-1.389.947-1.435-.419-.069m67.249-.645,1,.306-1,.429c-.569.244-.733.439-.38.454.652.026,1.58-.711,1.58-1.255,0-.176-.5-.3-1.1-.28l-1.1.04,1,.306m30.351.645c-.958.958-1.078.985-1.691.372-.363-.363-.66-.474-.66-.246,0,.388,1.59,1.465,1.734,1.175.036-.072.5-.627,1.036-1.232,1.224-1.389.947-1.435-.419-.069m-37.939.028c-.012.474,2.6,2.944,3.1,2.937.157,0-.3-.464-1.008-1.024a8.635,8.635,0,0,1-1.687-1.7c-.217-.372-.4-.47-.407-.217M142.88,308.48a1.546,1.546,0,0,0-.468.9c.007.231.2.1.42-.28.3-.516.923-.7,2.368-.7s2.067.184,2.368.7c.224.385.413.511.42.28.025-.869-1.008-1.38-2.788-1.38a4.436,4.436,0,0,0-2.32.48m32.312.42c-.385.794-.372.821.113.223a4.132,4.132,0,0,1,2.722-.826l2.173-.149-2.286-.074c-2.013-.065-2.338.034-2.722.826m8.091-.3c.144.988-1.762,1.347-2.807.529-.607-.475-.62-.458-.127.171,1.09,1.39,4.17.514,3.211-.913-.316-.471-.37-.429-.277.213m88.517,1-1.2.3,1.076.048A1.759,1.759,0,0,0,273,309.6c.136-.22.192-.379.124-.353s-.664.185-1.324.353M195,310c-1.078.274-1.1.306-.2.313a7.714,7.714,0,0,0,2-.313c1.344-.431-.108-.431-1.8,0m13.3-.107a22.972,22.972,0,0,0,3.4,0c.935-.084.17-.153-1.7-.153s-2.635.069-1.7.153m32,0a22.972,22.972,0,0,0,3.4,0c.935-.084.17-.153-1.7-.153s-2.635.069-1.7.153" fill="#b8a6c1" fill-rule="evenodd"/>
    <path id="path4" d="M196.315,128.328c-.377.15.651.272,2.285.272s2.662-.122,2.285-.272a9.734,9.734,0,0,0-4.57,0m7.085,1.133a18.877,18.877,0,0,1,3,2.284l1.8,1.655-1.6-1.733c-1.482-1.605-3.319-2.889-4.08-2.851-.176.009.22.3.88.645M191.267,131.1l-1.5,1.5,1.417-1.2c.78-.659,1.589-1.334,1.8-1.5s.247-.3.085-.3a7.835,7.835,0,0,0-1.8,1.5m-2.686,3.337a2.918,2.918,0,0,0-.482,1.4c.087.087.457-.47.823-1.237.822-1.725.537-1.857-.341-.158m-.857,4.963c0,1.32.077,1.812.166,1.093a10.674,10.674,0,0,0,0-2.4c-.091-.6-.164-.013-.162,1.307m51.106,2.187c-.836.427-1.158.77-.826.881.309.1-.963,1.195-2.953,2.533a35.94,35.94,0,0,0-3.717,2.7,25.01,25.01,0,0,0,3.836-2.345c2.921-1.945,3.911-2.8,3.542-3.068s-.3-.3.2-.137c.721.233,2.284-.487,2.284-1.052,0-.465-.857-.29-2.37.483M233.6,144c-.77.422-1.22.766-1,.766a6.924,6.924,0,0,0,1.8-.766c.77-.422,1.22-.766,1-.766a6.924,6.924,0,0,0-1.8.766m-26,1.393a11.743,11.743,0,0,1-2.132,2.433c-.723.59-.9.854-.407.611.916-.453,3.735-3.554,3.735-4.109,0-.624-.338-.322-1.2,1.065m-18.408-.224c.857,1.64,4.571,4.8,5.064,4.3.118-.118-.322-.491-.977-.83a13.79,13.79,0,0,1-2.893-2.53c-.935-1.052-1.473-1.477-1.194-.944m35.937,2.982c-4.384,2.357-4.4,2.678-.033.491a26.643,26.643,0,0,0,3.7-2.046c0-.353-.559-.116-3.667,1.555m4.067.939c-4.851,3.746-10.79,8.571-11.033,8.964-.233.377,4.789-3.527,11.633-9.044,1.647-1.327,1.134-1.259-.6.08m-33.6.892a2.908,2.908,0,0,0,1.367.412c1.023.008.7-.221-.767-.55-.876-.2-1.038-.159-.6.138m5,.018c-.5.217-.578.344-.2.344a4.407,4.407,0,0,0,1.4-.344c.5-.217.578-.344.2-.344a4.407,4.407,0,0,0-1.4.344m16.1,2.629c-1.495.811-1.4,1.149.1.371a3.583,3.583,0,0,0,1.2-.81c0-.258-.043-.243-1.3.439m-2.8,1.6c-1.495.811-1.4,1.149.1.371a3.583,3.583,0,0,0,1.2-.81c0-.258-.043-.243-1.3.439m-3.4,2a6.872,6.872,0,0,0-1.7,1.229c0,.216,2.7-1.317,3.38-1.919s.047-.345-1.68.69m-4.019,2.346c-1.96,1.386-2.1,1.693-.281.633,1.878-1.1,2.525-1.614,1.98-1.585a6.345,6.345,0,0,0-1.7.952m3.029,7.488c-7.557,7.554-11.538,11.94-10.836,11.94a2.654,2.654,0,0,0,1.1-.9,162.4,162.4,0,0,1,15.955-16.636c1.062-.955,1.838-1.828,1.726-1.94a104.9,104.9,0,0,0-7.947,7.536m-44.395-4.132c-.376.15.524.283,2,.3,1.7.016,2.317-.08,1.685-.26a6.491,6.491,0,0,0-3.685-.036m-2.947,1.226c-1.341.818-3.782,3.58-3.744,4.237.012.225.237.07.5-.345a10.857,10.857,0,0,1,3.824-3.844c.8-.421,1.272-.774,1.052-.783a5.137,5.137,0,0,0-1.632.735m9.48.39a12.789,12.789,0,0,1,2.7,2.3c.493.636.722.8.509.356a10.546,10.546,0,0,0-3.531-3.351c-1.665-.855-1.474-.444.322.7m26.582.393a20.736,20.736,0,0,0-1.8,1.137c-.347.261-1.53,1.146-2.63,1.967-1.8,1.343-9.091,7.4-11.9,9.88a4.088,4.088,0,0,0-1.1,1.263,19.38,19.38,0,0,0,3.3-2.671c1.815-1.629,4.47-3.851,5.9-4.938s2.69-2.074,2.8-2.194a18.954,18.954,0,0,1,1.6-1.181,13.3,13.3,0,0,0,1.6-1.221,14.934,14.934,0,0,1,1.9-1.324c2.241-1.4,2.488-1.942.33-.718M157.852,168.9a9.76,9.76,0,0,0,.076,4.385c.15.377.272-.658.272-2.3,0-3.316-.007-3.358-.348-2.085m-29.452.257c0,.2.315.5.7.664,1.024.45,2.925.543,2.671.132a1.284,1.284,0,0,0-.971-.353,1.3,1.3,0,0,1-1-.4c-.307-.5-1.4-.53-1.4-.043m2.22,1.588c.209.19,1.73,1.25,3.38,2.356s4.35,3.144,6,4.531,2.736,2.2,2.414,1.8c-1.263-1.554-11.126-9.032-11.913-9.032-.144,0-.09.155.119.345m5.38,1.448a8.567,8.567,0,0,0,2,1.207c2.515,1.275,2.621,1.016.15-.366-1.923-1.074-2.15-1.163-2.15-.841m39.234,2.305a10.428,10.428,0,0,1-4.834,4.866c-.77.333-1.166.612-.88.62,2.039.062,7.429-5.569,6.356-6.641-.108-.108-.4.412-.642,1.155m-34.834.092a3.957,3.957,0,0,0,1.3.824l1.3.634-1-.815c-.963-.785-1.6-1.041-1.6-.643m18-.064c-.006,1.508,4.25,5.513,5.8,5.456.22-.007-.14-.3-.8-.646a12.248,12.248,0,0,1-4.249-3.936c-.411-.66-.749-1.053-.75-.874m-15.2,1.664a3.957,3.957,0,0,0,1.3.824l1.3.634-1-.815c-.963-.785-1.6-1.041-1.6-.643m2.8,1.6a3.957,3.957,0,0,0,1.3.824l1.3.634-1-.815c-.963-.785-1.6-1.041-1.6-.643m32.778,2.11-1.378,1.5,1.5-1.378a13.779,13.779,0,0,0,1.5-1.5c0-.306-.338-.018-1.622,1.378m-29.974-.6c.324.387,8,5.469,8,5.3a54.278,54.278,0,0,0-6.6-4.627c-.88-.5-1.508-.8-1.4-.671m17.7.978a3.3,3.3,0,0,0,1.4,0c.385-.1.07-.183-.7-.183s-1.085.082-.7.183M147.079,184.3a53.472,53.472,0,0,1,4.435,5c.362.6.813,1.1,1,1.1s-.043-.495-.516-1.1c-1.572-2.013-8.055-8.9-8.378-8.9a27.769,27.769,0,0,0,3.458,3.9m29.118-1.709c-3.334,3.89-4.248,5.009-4.092,5.009a43.375,43.375,0,0,0,5.039-5.789c-.082-.083-.509.268-.947.78m18.147.509c-1.269,1.532-1.725,2.242-1.263,1.965.512-.307,2.288-2.665,2.008-2.665a2.549,2.549,0,0,0-.745.7m-37,2a7.78,7.78,0,0,0,1.544,1.357c.693.494,1.133.69.976.437a7.78,7.78,0,0,0-1.544-1.357c-.693-.494-1.133-.69-.976-.437m34.353,1.6c-1.036,1.5-1.372,2.1-1.17,2.1a7.919,7.919,0,0,0,1.23-1.6c1.183-1.788,1.131-2.221-.06-.5m-31.162.788c.435.7,4.271,3.82,4.247,3.449a11.17,11.17,0,0,0-2.271-2.113c-1.237-.977-2.126-1.578-1.976-1.336m10.592,1.212c-.925,1.079-3.314,4.779-2.647,4.1a31.855,31.855,0,0,0,3.42-4.8,2.607,2.607,0,0,0-.773.7m-16.266,5.18c2.265,3.458,3.39,4.807,1.934,2.32a29.812,29.812,0,0,0-3.59-5.2c-.213-.132.532,1.164,1.656,2.879m9.821-1.275c-.366.767-.583,1.4-.482,1.4a5.954,5.954,0,0,0,1.305-2.632c-.087-.087-.457.47-.823,1.237m23.274-.1c-.262.495-.737,1.35-1.056,1.9-.557.959-.553.967.092.2.8-.948,1.917-3,1.636-3-.108,0-.41.4-.672.9m-20.938,2.135c-.373.569-.609,1.1-.525,1.187s.469-.381.855-1.034c.862-1.46.6-1.579-.33-.153m-3.985.908c-.9,1.75-.773,2.1.194.512.451-.74.734-1.432.628-1.537s-.475.355-.822,1.025m2.352,2.094a2.918,2.918,0,0,0-.482,1.4c.087.087.457-.47.823-1.237.822-1.725.537-1.857-.341-.158m18.8,1.6a7.468,7.468,0,0,0-.885,2.189,6.9,6.9,0,0,0,1.223-2.04,7.852,7.852,0,0,0,.884-2.189,9.089,9.089,0,0,0-1.222,2.04M161,200c-.15.473-.183.95-.073,1.06s.323-.187.473-.66.183-.95.073-1.06-.323.187-.473.66m-1.933.868c.764,1.308,1.733,1.947,1.733,1.142,0-.252-.172-.351-.383-.221s-.665-.309-1.01-.976-.729-1.213-.854-1.213.107.571.514,1.268M162.6,204.8c-.15.473-.183.95-.073,1.06s.323-.187.473-.66.183-.95.073-1.06-.323.187-.473.66m-.731,3.556a11.221,11.221,0,0,0-.225,2.194c.024.468.2.04.4-.95a8.13,8.13,0,0,0,.225-2.194c-.071-.216-.25.211-.4.95M140.8,210c0,.22-.24.4-.534.4-.646,0-6.266,2.7-6.266,3.009,0,.12.375.018.834-.227,1.446-.774,1.251-.141-.323,1.047a33.615,33.615,0,0,0-5.842,5.571c-.467.66.419-.081,1.969-1.647a38.847,38.847,0,0,1,4.508-3.965c1.261-.834,1.559-1.213,1.172-1.491-.368-.264-.3-.3.218-.133a2.527,2.527,0,0,0,1.8-.477,23.919,23.919,0,0,1,2.164-1.269c1.088-.547,1.474-1.218.7-1.218a.4.4,0,0,0-.4.4m38.6.4c-.15.473-.183.95-.073,1.06s.323-.187.473-.66.183-.95.073-1.06-.323.187-.473.66m79.8,0a4.291,4.291,0,0,0,1.322.791,18.123,18.123,0,0,1,2.8,1.676c1.409.948,2.149,1.293,1.716.8-.956-1.088-.669-1.1,1.139-.027.783.461,1.423.739,1.423.616,0-.451-3.59-2.309-3.988-2.063-.227.14-.412.072-.412-.151s-.675-.7-1.5-1.057-1.813-.817-2.2-1.019c-1.185-.625-1.353-.386-.3.434m-80.571,2.629a2.337,2.337,0,0,0-.1,1.237c.1.094.292-.308.439-.9a2.336,2.336,0,0,0,.1-1.237c-.095-.094-.292.308-.439.9m87.371,1.5a9.966,9.966,0,0,0,1.3,1.3L268.6,217l-1.175-1.3c-1.1-1.212-1.425-1.484-1.425-1.175M177.8,216a2.833,2.833,0,0,0-.076,1.457c.11.11.324-.366.476-1.057a2.833,2.833,0,0,0,.076-1.457c-.11-.11-.324.366-.476,1.057m-16.172.433a6.818,6.818,0,0,0,.392,2.167c.245.539.285.146.121-1.2-.29-2.381-.552-2.876-.513-.967m108.566-.355c2.634,2.033,6.742,6.22,7.694,7.84.555.945,1.1,1.633,1.2,1.528.636-.636-5.761-7.563-8.687-9.408l-1.4-.882,1.194.922m-142,1.214c-.875.71-2.221,1.906-2.991,2.659-1.295,1.265.241.083,3.948-3.037,1.654-1.392.816-1.062-.957.378m140.609-.325c0,.421,1.205,1.561,1.421,1.345.1-.1-.177-.51-.619-.91s-.8-.595-.8-.435M177,220a4.707,4.707,0,0,0-.093,1.84c.1.1.306-.563.453-1.48a5.048,5.048,0,0,0,.093-1.84c-.1-.1-.3.57-.453,1.48m-14.566.6a2.887,2.887,0,0,0,.366,1.4c.514.795.514-.2,0-1.4l-.344-.8-.022.8m-39.607,1.9a20.106,20.106,0,0,0-1.937,3.5c.547-.465,3.032-4.4,2.779-4.4-.152,0-.531.4-.842.9m150.651.9c.366.767.736,1.324.823,1.237A5.954,5.954,0,0,0,273,222c-.1,0,.116.628.482,1.4m-97.221,2.264a44.288,44.288,0,0,0,.076,9.541c.159,1.04.276-1.113.279-5.1.005-7.77,0-7.834-.355-4.441m98.4,1.341a8.273,8.273,0,0,0,.391,1.767c.3.343.076-1.8-.272-2.567-.252-.558-.288-.315-.119.8m-149.331,2c0,1.54.074,2.121.161,1.291a14.939,14.939,0,0,0,0-2.8c-.089-.71-.16-.031-.158,1.509m39.478-1.9a4.382,4.382,0,0,0,.824,1.3l.815,1-.634-1.3c-.6-1.235-1.025-1.655-1-1m115.259,1.3c.02,1.039.65,2.746.664,1.8a4.7,4.7,0,0,0-.332-1.6c-.211-.49-.339-.568-.332-.2m-160.331,3.8c0,1.76.072,2.43.156,1.489a19.969,19.969,0,0,0,0-3.2c-.086-.819-.155-.049-.154,1.711m46.739-2.3a9.638,9.638,0,0,0,2.03,2.9c.168,0-.171-.717-.753-1.6-.921-1.391-1.7-2.181-1.277-1.3m108.378.9a17.581,17.581,0,0,1-.271,2l-.206,1,.43-.985a4.271,4.271,0,0,0,.271-2l-.158-1.015-.066,1M170.8,235.776c2.327,2.625,2.429,2.725,2.607,2.548a8.7,8.7,0,0,0-1.916-2.148c-1.64-1.552-1.788-1.637-.691-.4m-43.817.524a3.957,3.957,0,0,0,.824,1.3c.4,0,.142-.637-.643-1.6l-.815-1,.634,1.3m144.5,2.3c-.614.77-.994,1.4-.844,1.4.3,0,1.135-.988,1.782-2.1.636-1.093.282-.829-.938.7m-94.649.4a2.887,2.887,0,0,0,.366,1.4c.514.8.514-.2,0-1.4l-.344-.8-.022.8m-1.568,1.389c1.79,1.641,2.334,1.918,2.334,1.187,0-.233-.151-.33-.337-.215s-.94-.415-1.678-1.177a5.905,5.905,0,0,0-1.7-1.384c-.195,0,.425.715,1.379,1.589m102.345.794a34.543,34.543,0,0,1-4.352,4.9c-1.682,1.584-2.519,2.5-1.859,2.031,2.564-1.814,8.21-8.232,7.7-8.747-.106-.106-.774.714-1.484,1.821m-155.99-1.041c-.046.756,4.5,5.886,6.591,7.445.433.322-.567-.848-2.223-2.6s-3.312-3.637-3.679-4.187-.677-.846-.689-.658m7.979.046c0,.4,5.976,5.258,7.547,6.138,2.437,1.364,2.009.809-.647-.841a35.43,35.43,0,0,1-4.482-3.457c-2.162-2.01-2.418-2.2-2.418-1.84m137.635,2.77a22.834,22.834,0,0,1-3.057,2.256,17.422,17.422,0,0,0-2.578,1.866c0,.252,2.684-1.369,4.376-2.644.757-.57,1.562-1.161,1.788-1.314s.309-.383.181-.51-.446.028-.71.346M139.2,247.379a3.445,3.445,0,0,0,1.2.821c.66.341,1.2.531,1.2.421a3.445,3.445,0,0,0-1.2-.821c-.66-.341-1.2-.531-1.2-.421m120.4.654-1,.815,1.3-.634a3.957,3.957,0,0,0,1.3-.824c0-.4-.637-.142-1.6.643m-130.029.525c.542.66,2.829,2.038,2.829,1.705a9.456,9.456,0,0,0-1.7-1.278c-.961-.634-1.452-.819-1.129-.427M266.9,250.626c-1.888,1.132-2.323,1.723-.6.815,1.209-.638,2.816-1.81,2.5-1.824a12.141,12.141,0,0,0-1.9,1.009m-133.5.411c.973.764,6.232,3.464,6.407,3.289a24.343,24.343,0,0,0-3.541-2.022c-2.016-1.043-3.306-1.613-2.866-1.267m23.4,3.763a2.65,2.65,0,0,0,1.2.388c.533,0,.533-.043,0-.388a2.65,2.65,0,0,0-1.2-.388c-.533,0-.533.043,0,.388m2.8.8a2.65,2.65,0,0,0,1.2.388c.533,0,.533-.043,0-.388a2.65,2.65,0,0,0-1.2-.388c-.533,0-.533.043,0,.388m79.8,0c-.5.217-.578.344-.2.344a4.407,4.407,0,0,0,1.4-.344c.5-.217.578-.344.2-.344a4.407,4.407,0,0,0-1.4.344m-76.8.8c1.2.514,2.195.514,1.4,0a2.888,2.888,0,0,0-1.4-.366l-.8.022.8.344m73.6,0-.8.344.8.022a2.887,2.887,0,0,0,1.4-.366c.795-.514-.2-.514-1.4,0m-89.8.6c0,.3,2.823,1.407,3.549,1.386.358-.01-.249-.37-1.349-.8-2.216-.866-2.2-.861-2.2-.587m20,.205a7.239,7.239,0,0,0,1.8.32c.633,0,.592-.066-.2-.32a7.238,7.238,0,0,0-1.8-.32c-.633,0-.592.066.2.32m65.8,0-.8.344.8-.012a7.589,7.589,0,0,0,1.8-.332l1-.32-1-.012a5.309,5.309,0,0,0-1.8.332m-61.4.8a7.9,7.9,0,0,0,2,.32h1l-1-.32a7.9,7.9,0,0,0-2-.32h-1l1,.32m56.6,0-1.2.3,1.2.008a8.528,8.528,0,0,0,2.2-.313l1-.32-1,.007a11.212,11.212,0,0,0-2.2.313m-76,.8a4.406,4.406,0,0,0,1.4.344c.378,0,.3-.127-.2-.344a4.407,4.407,0,0,0-1.4-.344c-.378,0-.3.127.2.344m24.8,0a11.737,11.737,0,0,0,2.4.305h1.2l-1.2-.305a11.737,11.737,0,0,0-2.4-.3H175l1.2.3m45.4,0-1.4.3,1.4.012a9.279,9.279,0,0,0,2.4-.307l1-.32-1,.013a15.447,15.447,0,0,0-2.4.307m26,0c-.533.345-.533.388,0,.388a2.65,2.65,0,0,0,1.2-.388c.533-.345.533-.388,0-.388a2.65,2.65,0,0,0-1.2.388m-93.6.8a2.65,2.65,0,0,0,1.2.388c.533,0,.533-.043,0-.388a2.65,2.65,0,0,0-1.2-.388c-.533,0-.533.043,0,.388m29,.008c1.574.34,6.092.532,5.767.245a28.83,28.83,0,0,0-3.767-.368c-2.506-.155-3.114-.117-2,.123m30.8-.008-2.4.266,2,.044a19.518,19.518,0,0,0,3.6-.287c2-.414.436-.425-3.2-.023m-56.8.8c1.2.514,2.2.514,1.4,0a2.887,2.887,0,0,0-1.4-.366l-.8.022.8.344m40.119-.1c1.825.074,4.705.074,6.4,0s.2-.136-3.319-.135-4.906.062-3.081.136m44.681.1c-.5.217-.578.344-.2.344a4.407,4.407,0,0,0,1.4-.344c.5-.217.578-.344.2-.344a4.407,4.407,0,0,0-1.4.344m-81.4.8a2.888,2.888,0,0,0,1.4.366l.8-.022-.8-.344c-1.2-.514-2.2-.514-1.4,0m77.8,0-.8.344h.8a4.865,4.865,0,0,0,1.6-.344l.8-.344h-.8a4.864,4.864,0,0,0-1.6.344m-74.4.8a4.865,4.865,0,0,0,1.6.344h.8l-.8-.344a4.865,4.865,0,0,0-1.6-.344H163l.8.344m71,0c-.8.257-.843.323-.2.332a4.7,4.7,0,0,0,1.6-.332c1.019-.438-.032-.438-1.4,0m-66.8.8a7.9,7.9,0,0,0,2,.32h1l-1-.32a7.9,7.9,0,0,0-2-.32h-1l1,.32m62,0-1,.32h1a7.9,7.9,0,0,0,2-.32l1-.32h-1a7.9,7.9,0,0,0-2,.32m-56.8.8a7.714,7.714,0,0,0,2,.313c.9-.007.878-.039-.2-.313-1.692-.431-3.144-.431-1.8,0m51.8,0c-1.07.272-1.092.3-.2.3a10.875,10.875,0,0,0,2.2-.3c1.07-.272,1.092-.3.2-.3a10.875,10.875,0,0,0-2.2.3m-45.6.823a15.547,15.547,0,0,0,2.8.308c1.044-.02.992-.066-.4-.354a15.547,15.547,0,0,0-2.8-.308c-1.044.02-.992.066.4.354M218,264.4c-2.088.439.346.457,2.8.02l1.8-.32-1.6,0a17.735,17.735,0,0,0-3,.3m-27.6.848c1.65.136,5.97.247,9.6.247s7.95-.111,9.6-.247S206.93,265,200,265s-11.25.111-9.6.248m-74.484,11.3c-2.287,1.738-1.606,4.3,1.69,6.361,2.979,1.862,3.127,2.681.494,2.728-1.695.031-1.777.072-.762.376,3.517,1.054,3.812-1.11.462-3.391-2.954-2.012-3.551-4.213-1.567-5.774.591-.465.916-.839.721-.832a2.675,2.675,0,0,0-1.038.532m5.241-.216a1.175,1.175,0,0,1,.323,1.288c-.163.621-.107.77.18.483a1.29,1.29,0,0,0-.46-2c-.5-.136-.506-.1-.043.226M128,277.2c0,1.056.132,1.193,1.1,1.146.943-.047.972-.08.2-.228-.973-.188-1.258-1.507-.4-1.853.3-.121.218-.215-.2-.233-.518-.024-.7.28-.7,1.168m7.9-.233c.147.769-.008,1-.756,1.145-.856.163-.842.184.16.234.968.047,1.1-.09,1.1-1.146,0-.66-.155-1.2-.345-1.2s-.261.435-.159.967m5.713,3.733c.008,4.128.108,4.822.824,5.7l.815,1-.624-1.28c-.8-1.644-.9-9.542-.124-9.855.3-.121.218-.215-.2-.233-.629-.029-.7.443-.691,4.668m2.446-.4c.141,2.366.276,4.333.3,4.372.876,1.406,3.216,1.767,4.077.629.45-.6.446-.625-.031-.2-2.108,1.88-3.6.275-3.606-3.88-.006-3.413-.262-5.22-.742-5.221a18.478,18.478,0,0,0,0,4.3m4.917-3.769a26.043,26.043,0,0,0-.071,4.3l.133,3.77.083-4.067c.057-2.813.237-4.129.583-4.268.392-.158.389-.209-.013-.233a.787.787,0,0,0-.715.5m2.165-.214c.409.287.5,1.441.4,4.864l-.137,4.487-1.306,1.167c-.719.641-1.142,1.166-.942,1.166a5.344,5.344,0,0,0,1.619-1.429l1.255-1.428-.113-4.439c-.09-3.54-.235-4.472-.713-4.6s-.493-.088-.063.214m13.049.271a6.325,6.325,0,0,1,2.9,1.6c.5.585.914.9.914.71,0-1.072-3.176-2.919-4.926-2.865-.481.015.02.267,1.112.56m17.312.389c.174.911.055.988-1.756,1.141l-1.942.165,2-.041c1.8-.037,3.652-2.241,1.882-2.241-.2,0-.287.439-.184.976m6.591,4.891c.083,4.364.242,5.894.621,5.97.28.057.326.012.1-.1-.455-.226-.591-11.337-.139-11.337a29.168,29.168,0,0,1,3.354,3c3.85,3.747,3.993,3.75,3.9.1l-.07-2.9-.23,2.8-.229,2.8-3.094-3.1c-4.348-4.353-4.351-4.351-4.217,2.77m23.8-4.928c.163.849.019,1.028-.949,1.188l-1.141.189,1.2-.058c1.246-.06,1.865-1.156,1.09-1.931-.25-.25-.32-.033-.2.612m23.51-.28a6.411,6.411,0,0,1,1.7,1.26c.275.349.5.432.5.185,0-.557-2.129-2.11-2.862-2.088-.3.009,0,.3.662.643m11.984-.232c-.424.686-.045.753.793.14.649-.474.669-.567.123-.567a1.174,1.174,0,0,0-.916.427m11.991.093c-.454,1.183.02,11.214.535,11.317.28.057.326.012.1-.1-.631-.313-.546-11.216.09-11.472.392-.158.389-.209-.013-.233a.78.78,0,0,0-.712.488m5.968-.109c2.738.821,3.609,3,2.29,5.721-.995,2.055-1.011,2.287-.226,3.292.565.723.575.7.149-.294-.382-.9-.31-1.373.446-2.935,1.478-3.052-.147-6.3-3.082-6.161-.423.021-.248.176.423.377m9.724-.144c-.369.369-.338,11.242.033,11.471.165.1.3-2.5.3-5.776s-.015-5.962-.033-5.962a1.851,1.851,0,0,0-.3.267M158.157,282c0,2.97.063,4.185.14,2.7s.077-3.915,0-5.4-.14-.27-.14,2.7m69.279-3.969a4.489,4.489,0,0,0-1.024,1.7c.007.258.211.109.455-.331a11.262,11.262,0,0,1,1.257-1.7c.449-.5.71-.9.581-.9a5.2,5.2,0,0,0-1.269,1.231m21.4-1.031a6.924,6.924,0,0,0,.766,1.8c.422.77.766,1.22.766,1a6.924,6.924,0,0,0-.766-1.8c-.422-.77-.766-1.22-.766-1M118.1,278.012c-.495.2-.886.593-.868.875.024.4.075.4.233.013.113-.281.933-.512,1.868-.528,1.3-.022,1.49-.1.867-.372-.995-.428-1-.428-2.1.012M280,278l-2.2.27,2.3.065c1.31.037,2.3-.107,2.3-.335s-.045-.371-.1-.335-1.09.187-2.3.335m-149.275,4.9a24.179,24.179,0,0,0,.4,4.783c.151.154.219-1.871.151-4.5a21.075,21.075,0,0,0-.4-4.783,18.565,18.565,0,0,0-.151,4.5m32.875-4.345a4.277,4.277,0,0,0,1.1.862l1.1.708-.762-.862c-.674-.763-1.438-1.139-1.438-.708m13.2,1.438c0,1.7.2,1.842,3,2.1,1.96.18,1.827,1.424-.175,1.625l-1.628.163,1.7-.039c2.793-.064,2.542-1.955-.3-2.239l-2-.2v-1.5c0-.825-.135-1.5-.3-1.5s-.3.717-.3,1.592m29.6,2.495c0,4.084.192,5.512.743,5.514.4,0,.053-8.956-.368-9.381-.234-.237-.375,1.217-.375,3.867m2.885.38c-.06,3.292-.232,4.726-.585,4.868-.392.158-.389.209.013.233.81.05.924-.731.786-5.394l-.129-4.374-.085,4.667m20.342-3.5c-.5.535-.848,1.14-.77,1.346s.54-.231,1.025-.971c1.045-1.6.981-1.691-.255-.375m32.482.629c0,.99.078,1.395.173.9a5.662,5.662,0,0,0,0-1.8c-.1-.495-.173-.09-.173.9m3.184-.8a1.219,1.219,0,0,1,0,1.6c-.275.44-.33.8-.123.8s.49-.36.63-.8c.3-.936-.087-2.4-.63-2.4-.207,0-.152.36.123.8m12,.8c0,.77.082,1.085.183.7a3.305,3.305,0,0,0,0-1.4c-.1-.385-.183-.07-.183.7m-109.165,2c0,2.406.025,2.489.371,1.111a4.957,4.957,0,0,0,0-2.6c-.3-.911-.372-.644-.375,1.489m-2.419,0c0,.99.078,1.395.173.9a5.661,5.661,0,0,0,0-1.8c-.1-.495-.173-.09-.173.9M119.6,280.99a3.362,3.362,0,0,0,1.157.788,3.258,3.258,0,0,1,.379,5.582c-.5.352-.739.634-.525.627,1.679-.055,2.937-2.953,2.037-4.694-.687-1.328-3.048-3.112-3.048-2.3M226.093,282c0,.77.082,1.085.183.7a3.3,3.3,0,0,0,0-1.4c-.1-.385-.183-.07-.183.7m21.6-.4c-.725,1.16-.607,1.316.3.4.848-.848.993-1.2.5-1.2-.167,0-.527.358-.8.8m-3.073,1.011c-.863,2.066-.749,2.3.224.456.446-.846.718-1.63.6-1.743s-.486.466-.829,1.287m-54.293,2.2a8.754,8.754,0,0,0,.17,3.2,5.509,5.509,0,0,0,.306-2.5c.01-3.834.25-3.867,3.6-.492,1.635,1.646,3.246,2.981,3.582,2.967.413-.018.351-.132-.19-.355a19.994,19.994,0,0,1-3.4-3.175c-3.459-3.792-3.906-3.753-4.074.356M278,281.823c1.515.33,3.6.386,3.6.1,0-.176-.945-.3-2.1-.274s-1.83.106-1.5.177M248.975,282.9a1.006,1.006,0,0,1-1.91.6c-.122-.3-.214-.225-.233.192-.034.737,1.6,1.38,2.345.922.541-.334.533-1.442-.015-2.214-.329-.462-.372-.347-.187.5m-20.143.33a2.944,2.944,0,0,0,1.068,1.6l1.1.97-.849-1a7.332,7.332,0,0,1-1.069-1.6c-.187-.514-.223-.509-.25.03m50.073.657a7.14,7.14,0,0,0,2-.005c.492-.1-.005-.171-1.105-.168s-1.5.081-.895.173m-102.1.913c0,.44.141.8.314.8s.315-.36.315-.8-.142-.8-.315-.8-.314.36-.314.8m49.612-.506a3.87,3.87,0,0,0,1.088,1.619c.6.619.81.757.455.306a14.518,14.518,0,0,1-1.088-1.619c-.244-.44-.448-.578-.455-.306m35.655,1.126a4.082,4.082,0,0,1-.547,2.1c-.373.373-.371.48.013.48.7,0,.946-.871.761-2.658l-.16-1.542-.067,1.62m-95.076.475a6.141,6.141,0,0,1-2.8,1.517c-1.488.4-1.708.541-.871.561,1.655.04,5.371-2.3,4.644-2.919-.09-.077-.528.3-.973.841m-51.957.178c-.69.985-.216,1.961.915,1.881.549-.04.542-.075-.049-.23-.8-.21-.926-1.338-.22-2.044.264-.264.364-.48.223-.48s-.533.393-.869.873m64.708-.19c1.811.153,1.93.23,1.756,1.141-.1.537-.02.976.184.976,1.77,0-.081-2.2-1.882-2.241l-2-.041,1.942.165m98.658-.058c1.427.315,4,.37,4,.086,0-.171-1.035-.29-2.3-.265s-2.03.106-1.7.179m-10.291,1.366c.034.445.2.809.376.809.442,0,.394-1.1-.061-1.385-.206-.128-.348.132-.315.576M117.7,288.276a3.3,3.3,0,0,0,1.4,0c.385-.1.07-.183-.7-.183s-1.085.082-.7.183m114,0a3.3,3.3,0,0,0,1.4,0c.385-.1.07-.183-.7-.183s-1.085.082-.7.183M123.4,298.7c1.707,2.017,3.1,3.507,2.714,2.9a20.666,20.666,0,0,0-3.348-4c-.163,0,.122.495.634,1.1m9.037-.2-.553.9.878-.781.878-.782-.122,5.882c-.114,5.547.074,7.044.627,4.981.709-2.647.177-11.1-.7-11.1-.252,0-.706.4-1.01.9m11.54.739a4.6,4.6,0,0,0-.67,1.8c.09.091.49-.557.888-1.439a4.1,4.1,0,0,1,1-1.6,4.1,4.1,0,0,1,1,1.6c.4.882.8,1.53.888,1.439.27-.27-1.472-3.443-1.89-3.443-.211,0-.76.737-1.22,1.639m12.42,4.137a31.786,31.786,0,0,0,.3,5.963c.165.1.246-2.407.179-5.576-.14-6.733-.3-6.608,3.521-2.763a28.61,28.61,0,0,0,3.241,3,24.733,24.733,0,0,0-3.017-3.2c-4.354-4.25-4.224-4.33-4.224,2.576m20.584-5.349c-.424.686-.045.753.793.14.649-.474.669-.567.123-.567a1.174,1.174,0,0,0-.916.427m20.816.232a6.41,6.41,0,0,1,1.7,1.26c.275.349.5.432.5.185,0-.557-2.129-2.11-2.862-2.088-.3.009,0,.3.662.643m23.2.441c1.707,2.017,3.1,3.507,2.714,2.9a20.666,20.666,0,0,0-3.348-4c-.163,0,.122.495.634,1.1m9.037-.2-.553.9.878-.781.878-.782-.122,5.882c-.114,5.547.074,7.044.627,4.981.709-2.647.177-11.1-.7-11.1-.252,0-.706.4-1.01.9m25.379,2.342c3.816,3.725,4.181,3.722,4.181-.032,0-1.509.184-2.835.41-2.947s.18-.157-.1-.1c-.343.069-.549,1.043-.628,2.97-.144,3.523-.048,3.527-3.682-.132a28.61,28.61,0,0,0-3.241-3,25.4,25.4,0,0,0,3.06,3.242m6.1,2.6c.139,6.662.282,6.511-3.11,3.263l-2.611-2.5,2.588,2.7a13.634,13.634,0,0,0,3.1,2.7c.57,0,.775-11.389.212-11.739-.165-.1-.246,2.407-.179,5.576M267.4,298a1.346,1.346,0,0,0,1.329,1.95c.84-.037.9-.09.273-.247-1.054-.263-1.458-.956-.928-1.594.3-.362.3-.513,0-.513a.9.9,0,0,0-.675.4m7.792-.141c.722.359.443,1.674-.4,1.862-.671.151-.654.172.1.128,1-.059,1.35-1.9.4-2.09-.28-.056-.326-.011-.1.1m-96.756.737a6.924,6.924,0,0,0,.766,1.8c.422.77.766,1.22.766,1a6.924,6.924,0,0,0-.766-1.8c-.422-.77-.766-1.22-.766-1m11.4,1.031a4.49,4.49,0,0,0-1.024,1.7c.007.258.211.109.455-.331a11.263,11.263,0,0,1,1.257-1.7c.449-.495.71-.9.581-.9a5.2,5.2,0,0,0-1.269,1.231m16.321,3.969c0,2.97.063,4.185.14,2.7s.077-3.915,0-5.4-.14-.27-.14,2.7m32,0c0,2.97.063,4.185.14,2.7s.077-3.915,0-5.4-.14-.27-.14,2.7m-116,0c0,2.75.064,3.875.142,2.5s.078-3.625,0-5-.142-.25-.142,2.5m44.4,0c0,2.75.064,3.875.142,2.5s.078-3.625,0-5-.142-.25-.142,2.5m53.2,0c0,2.75.064,3.875.142,2.5s.078-3.625,0-5-.142-.25-.142,2.5m32,0c0,2.75.064,3.875.142,2.5s.078-3.625,0-5-.142-.25-.142,2.5m-121.625-2.017c-1.578,2.046-2.385,2.457-2.784,1.417-.127-.33-.419-.6-.65-.6s-.093.36.305.8c1.085,1.2,1.548,1.007,3.365-1.4a11.267,11.267,0,0,0,1.477-2.2,12.88,12.88,0,0,0-1.713,1.983m80.776-1.7a7.14,7.14,0,0,0,2-.005c.492-.1-.005-.171-1.1-.168s-1.5.081-.9.173m16.824,1.7c-1.578,2.046-2.385,2.457-2.784,1.417-.127-.33-.419-.6-.65-.6s-.093.36.305.8c1.085,1.2,1.548,1.007,3.365-1.4a11.267,11.267,0,0,0,1.477-2.2,12.88,12.88,0,0,0-1.713,1.983m15.176-1.7a7.14,7.14,0,0,0,2-.005c.492-.1-.005-.171-1.1-.168s-1.5.081-.9.173m-50.878,1.084c-.5.535-.848,1.14-.77,1.346s.54-.231,1.025-.971c1.045-1.6.981-1.691-.255-.375m80.771,3.711c-.109,2.684-.057,4.739.116,4.566a21.148,21.148,0,0,0,.2-4.882L273,299.8l-.2,4.882m-128.349-1.23c-.263.578-.4,1.132-.3,1.23s.3-.2.441-.652.42-.83.61-.83.465.374.61.83.343.75.441.652c.238-.238-.7-2.282-1.051-2.282-.149,0-.487.473-.751,1.052M177.3,303.2c-.725,1.16-.607,1.316.3.4.848-.848.993-1.2.5-1.2-.167,0-.527.358-.8.8m11.2.4c0,.77.082,1.085.183.7a3.3,3.3,0,0,0,0-1.4c-.1-.385-.183-.07-.183.7m-14.27.606c-.863,2.066-.749,2.3.224.456.446-.846.718-1.63.6-1.743s-.486.466-.829,1.287m34.834-.914a4.012,4.012,0,0,0,1.967.308c2.423,0,2.656,1.451.276,1.724l-1.5.171,1.6-.047c2.745-.082,2.354-1.972-.467-2.256-1.136-.114-1.981-.069-1.876.1m32,0a4.012,4.012,0,0,0,1.967.308c2.423,0,2.656,1.451.276,1.724l-1.5.171,1.6-.047c2.745-.082,2.354-1.972-.467-2.256-1.136-.114-1.981-.069-1.876.1m-99.585,1.327c-.94,1.97-.808,2.305.175.443a4.306,4.306,0,0,0,.654-1.7c-.087-.086-.46.477-.829,1.252m6.562-1.219a6.925,6.925,0,0,0,.766,1.8c.422.77.766,1.22.766,1a6.925,6.925,0,0,0-.766-1.8c-.422-.77-.766-1.22-.766-1m10.766,2.767c0,1.631-.185,3.058-.41,3.17s-.18.157.1.1c.343-.069.549-1.043.628-2.97.144-3.523.048-3.527,3.682.132a28.611,28.611,0,0,0,3.241,3,24.733,24.733,0,0,0-3.017-3.2c-4.083-3.985-4.224-3.993-4.224-.233m36.243-2.334c-.391,1.019-.282,1.173.283.4.418-.571.956-.69,2.6-.577,1.14.079,2.073.009,2.073-.156,0-.642-4.7-.326-4.957.333m-16.468.667a1.006,1.006,0,0,1-1.91.6c-.122-.3-.214-.225-.233.192-.034.737,1.6,1.38,2.345.922.541-.334.533-1.442-.015-2.214-.329-.462-.372-.347-.187.5m-53.775-.318a9.219,9.219,0,0,0,2.249,2.218c.323,0-1.605-2.353-1.949-2.378-.165-.012-.3.06-.3.16m97.6,0a9.219,9.219,0,0,0,2.249,2.218c.323,0-1.6-2.353-1.949-2.378-.165-.012-.3.06-.3.16m-93.141,1.925-1.34,1.693,1.446-1.5c1.83-1.9,1.773-1.921,1.915.768.076,1.44.306,2.306.63,2.37.281.056.326.011.1-.1a5.015,5.015,0,0,1-.41-2.57c0-2.881-.476-3.015-2.341-.66m97.6,0-1.34,1.693,1.446-1.5c1.83-1.9,1.773-1.921,1.915.768.076,1.44.306,2.306.63,2.37.28.056.326.011.1-.1a5.014,5.014,0,0,1-.41-2.57c0-2.881-.476-3.015-2.341-.66M144.2,306a1.45,1.45,0,0,0,2,0c.145-.234-.27-.4-1-.4s-1.145.166-1,.4m44.612-.106a3.87,3.87,0,0,0,1.088,1.619c.605.619.81.757.455.306a14.521,14.521,0,0,1-1.088-1.619c-.244-.44-.448-.578-.455-.306m5.493,1.589a4.366,4.366,0,0,0,1.6-.008c.382-.1-.025-.179-.9-.174s-1.193.086-.7.182m16.6,0a7.14,7.14,0,0,0,2-.005c.492-.1-.005-.171-1.1-.168s-1.5.081-.9.173m32,0a7.14,7.14,0,0,0,2-.005c.492-.1-.005-.171-1.1-.168s-1.5.081-.9.173m-48.8,2.389a3.3,3.3,0,0,0,1.4,0c.385-.1.07-.183-.7-.183s-1.085.082-.7.183" fill="#9c96a8" fill-rule="evenodd"/>
  </g>
</svg>
